<svg viewBox="0 0 90 90" xmlns="http://www.w3.org/2000/svg"><g fill="none" fill-rule="evenodd"><path d="M88.653 55.886c-6.01 24.107-30.43 38.778-54.543 32.767-24.103-6.01-38.776-30.428-32.762-54.534C7.356 10.009 31.775-4.664 55.881 1.347c24.111 6.01 38.783 30.43 32.772 54.54Z" fill="#E84142" fill-rule="nonzero"/><path d="M32.248 63.208h-8.733c-1.835 0-2.741 0-3.294-.35a2.19 2.19 0 0 1-1.006-1.716c-.033-.645.42-1.432 1.326-3.007L42.105 20.55c.917-1.596 1.382-2.394 1.968-2.69a2.248 2.248 0 0 1 2.012 0c.585.296 1.05 1.094 1.967 2.69l4.433 7.653.023.039c.99 1.712 1.494 2.58 1.713 3.492a6.422 6.422 0 0 1 0 3.039c-.221.918-.719 1.793-1.725 3.53l-11.326 19.8-.03.051c-.997 1.727-1.503 2.602-2.204 3.262a6.606 6.606 0 0 1-2.686 1.541c-.917.252-1.945.252-4.002.252Zm22.055 0h12.514c1.846 0 2.774 0 3.327-.36a2.181 2.181 0 0 0 1.006-1.727c.032-.624-.411-1.38-1.28-2.863l-.09-.154L63.51 47.5l-.071-.12c-.88-1.473-1.326-2.216-1.896-2.504a2.223 2.223 0 0 0-2.001 0c-.575.295-1.04 1.071-1.957 2.635L51.34 58.114l-.021.037c-.915 1.56-1.372 2.34-1.339 2.98a2.21 2.21 0 0 0 1.006 1.728c.542.35 1.47.35 3.317.35Z" fill="#FFF"/></g></svg>