<svg viewBox="0 0 90 90" xmlns="http://www.w3.org/2000/svg"><g fill="none"><path d="M88.653 55.886c-6.01 24.107-30.43 38.778-54.543 32.767-24.103-6.01-38.776-30.428-32.762-54.534C7.356 10.009 31.775-4.664 55.881 1.347c24.111 6.01 38.783 30.43 32.772 54.54Z" fill="#0AC18E"/><path d="M24.86 34.741c-.259-1.72-.602-3.442-.86-5.163.086 0 .258-.086.344-.086 3.007-.516 6.1-1.032 9.107-1.549.343-.086.343-.086.257-.43-.43-2.323-.859-4.733-1.202-7.056-.086-.344-.086-.344.257-.344 1.289-.258 2.578-.43 3.78-.688h.086c.172-.086.258 0 .258.172v.258c.43 2.323.773 4.646 1.203 7.056.086.258.086.258.344.258 1.202-.172 2.405-.43 3.608-.602.344-.086.344-.086.344-.43-.43-2.324-.86-4.733-1.203-7.057-.086-.344-.086-.344.258-.344 1.288-.258 2.491-.43 3.78-.688.344-.086.344-.086.43.258.43 2.41.859 4.733 1.202 7.142.086.258.086.258.344.258 1.289-.258 2.491-.258 3.78-.172 4.382.344 7.475 2.581 9.193 6.712.687 1.72.601 3.356-.172 4.99-.515 1.12-1.203 2.066-2.062 3.012-.172.172-.172.172.086.258.945.345 1.976.689 2.921 1.119 1.375.688 2.578 1.549 3.437 2.754.601.86.945 1.893 1.289 2.925.515 1.98.43 3.872-.258 5.851-.86 2.324-2.32 4.217-4.296 5.68-2.148 1.635-4.64 2.581-7.303 3.097-.601.086-.601.086-.43.689.43 2.237.774 4.56 1.204 6.798 0 .086 0 .258.086.344l-4.382.774c0-.086-.086-.258-.086-.344-.43-2.41-.86-4.733-1.203-7.142-.086-.258-.086-.258-.343-.258-1.203.172-2.492.43-3.695.602-.258.086-.258.086-.258.344.43 2.41.86 4.733 1.203 7.142 0 .086 0 .259.086.345L41.613 72c0-.086-.086-.258-.086-.344-.43-2.323-.86-4.733-1.203-7.056-.086-.344-.086-.344-.43-.258-3.007.516-6.1 1.032-9.107 1.549h-.343v-.43c.086-1.722.171-3.529.257-5.25 0-.258.086-.344.344-.344 1.46-.258 2.835-.516 4.296-.774.343-.086.343-.086.257-.344-1.46-8.261-2.835-16.436-4.295-24.696-.086-.258-.086-.258-.344-.258-1.89.344-3.694.602-5.584.946h-.516ZM42.557 52.21c.257 1.72.601 3.442.859 5.163.086.258.086.258.343.258 2.406-.43 4.898-.86 7.303-1.29.945-.173 1.804-.431 2.663-.861 1.203-.603 2.148-1.377 2.664-2.668.515-1.204.515-2.41.172-3.7-.516-1.72-1.547-2.84-3.265-3.442-1.375-.43-2.75-.43-4.21-.172-2.406.43-4.811.86-7.217 1.205-.257.086-.257.086-.257.344.343 1.721.6 3.442.945 5.163Zm-2.664-14.972.773 4.646c.086.258.086.258.344.258 1.89-.344 3.78-.688 5.67-.946.774-.172 1.547-.43 2.234-.86 1.719-1.033 2.75-2.496 2.578-4.561-.172-1.721-.945-3.012-2.492-3.786-1.374-.689-2.835-.775-4.296-.517-1.804.258-3.608.603-5.412.947-.344.086-.344.086-.258.344.344 1.377.601 2.926.86 4.475Z" fill="#FFF"/></g></svg>