<svg viewBox="0 0 90 90" xmlns="http://www.w3.org/2000/svg"><g fill="none"><path d="M88.653 55.886c-6.01 24.107-30.43 38.778-54.543 32.767-24.103-6.01-38.776-30.428-32.762-54.534C7.356 10.009 31.775-4.664 55.881 1.347c24.111 6.01 38.783 30.43 32.772 54.54Z" fill="#F7931A"/><path d="M64.836 38.59c.896-5.988-3.664-9.207-9.899-11.355l2.023-8.11-4.938-1.231-1.969 7.897a206.582 206.582 0 0 0-3.956-.93l1.983-7.95-4.935-1.23-2.024 8.108c-1.075-.245-2.13-.487-3.153-.741l.005-.026-6.81-1.7-1.313 5.274s3.664.84 3.586.891c2 .5 2.362 1.823 2.301 2.872l-2.303 9.24c.137.035.316.086.513.165-.165-.041-.34-.086-.522-.13L30.196 52.58c-.245.607-.865 1.518-2.263 1.172.05.072-3.589-.895-3.589-.895l-2.451 5.651 6.426 1.602c1.195.3 2.366.613 3.52.908l-2.044 8.204 4.932 1.23 2.024-8.116c1.348.366 2.656.703 3.935 1.021l-2.016 8.079 4.937 1.23 2.044-8.188c8.42 1.593 14.752.95 17.417-6.664 2.147-6.132-.107-9.668-4.537-11.975 3.226-.743 5.656-2.865 6.305-7.249ZM53.554 54.407c-1.526 6.131-11.85 2.817-15.198 1.986l2.712-10.87c3.347.836 14.08 2.49 12.486 8.884ZM55.081 38.5c-1.392 5.577-9.986 2.743-12.773 2.049l2.458-9.858c2.788.695 11.765 1.991 10.315 7.809Z" fill="#FFF"/></g></svg>