<svg viewBox="0 0 90 90" xmlns="http://www.w3.org/2000/svg"><path d="M24.66 45.188a6.065 6.065 0 0 0 5.709 6.397h.33a6.054 6.054 0 0 0 6.052-5.936 6.052 6.052 0 0 0-5.828-6.154 6.055 6.055 0 0 0-6.279 5.696l.017-.003ZM2.066 43.654a1.955 1.955 0 0 0-2.063 1.84 1.954 1.954 0 0 0 1.843 2.06 1.955 1.955 0 0 0 1.572-3.251 1.955 1.955 0 0 0-1.352-.649ZM24.277 10.09a1.954 1.954 0 0 0 .851-2.628 1.962 1.962 0 0 0-2.63-.86 1.955 1.955 0 0 0 .273 3.605 1.97 1.97 0 0 0 1.506-.117Zm6.148 10.7a3.018 3.018 0 0 0 1.34-4.056 3.029 3.029 0 0 0-4.065-1.338 3.018 3.018 0 0 0 .414 5.566c.763.25 1.594.189 2.311-.172Zm-20.69 7.36a2.497 2.497 0 0 0 2.77-.022 2.486 2.486 0 0 0-.935-4.502 2.495 2.495 0 0 0-2.55 1.08 2.485 2.485 0 0 0 .715 3.443Zm3.685 14.404a3.024 3.024 0 0 0-3.192 2.844 3.023 3.023 0 0 0 2.849 3.187 3.024 3.024 0 0 0 3.193-2.842 3.026 3.026 0 0 0-2.85-3.189ZM10.066 62.86a2.486 2.486 0 0 0-1.101 3.343 2.495 2.495 0 0 0 3.348 1.1 2.486 2.486 0 0 0-.343-4.585 2.498 2.498 0 0 0-1.904.143ZM21.83 36.312a3.567 3.567 0 0 0 4.932-1.025 3.552 3.552 0 0 0-1.026-4.923 3.567 3.567 0 0 0-4.933 1.024 3.547 3.547 0 0 0 1.027 4.924Zm37.321-15.76a3.033 3.033 0 0 0 4.193-.88 3.02 3.02 0 0 0-.88-4.184 3.033 3.033 0 0 0-4.193.877 3.016 3.016 0 0 0 .88 4.187Zm6.212-10.667a1.963 1.963 0 0 0 2.178-.02 1.955 1.955 0 0 0-.74-3.539c-.78-.146-1.57.19-2.004.852a1.954 1.954 0 0 0 .566 2.707Zm-5.735 29.546c-3.342-.191-6.206 2.357-6.398 5.692a6.052 6.052 0 0 0 5.703 6.386h.35a6.06 6.06 0 0 0 5.529-3.577 6.038 6.038 0 0 0-1.012-6.498 5.99 5.99 0 0 0-4.172-2.003Zm-27.213-3.539a6.037 6.037 0 0 0 5.417 3.328 6.065 6.065 0 0 0 5.166-2.882 6.04 6.04 0 0 0 .244-5.902 6.04 6.04 0 0 0-5.417-3.305 6.065 6.065 0 0 0-5.15 2.876 6.04 6.04 0 0 0-.26 5.885Zm47.513-7.749a2.486 2.486 0 0 0 1.103-3.342 2.495 2.495 0 0 0-3.347-1.102 2.486 2.486 0 0 0-1.107 3.34 2.499 2.499 0 0 0 3.351 1.104ZM64.562 30.07a3.552 3.552 0 0 0-1.58 4.774 3.566 3.566 0 0 0 4.785 1.577 3.552 3.552 0 0 0-.486-6.554 3.566 3.566 0 0 0-2.72.202ZM44.768 8.973a2.494 2.494 0 0 0 2.388-1.404 2.485 2.485 0 0 0-.386-2.738 2.496 2.496 0 0 0-2.683-.691 2.489 2.489 0 0 0 .681 4.833Zm-.026 15.66a3.56 3.56 0 0 0 3.756-3.35 3.558 3.558 0 0 0-3.354-3.75 3.56 3.56 0 0 0-3.76 3.346 3.562 3.562 0 0 0 3.358 3.754ZM25.439 60.93a3.554 3.554 0 0 0-.49-6.551 3.567 3.567 0 0 0-3.814 1.057 3.55 3.55 0 0 0-.48 3.922 3.566 3.566 0 0 0 4.784 1.573Zm21.604-31.109a6.038 6.038 0 0 0 .605 7.405 6.068 6.068 0 0 0 7.34 1.232 6.043 6.043 0 0 0 2.999-6.799 6.057 6.057 0 0 0-5.868-4.57 6.069 6.069 0 0 0-5.076 2.732Zm10.536 25.29a6.064 6.064 0 0 0-7.267-3.033 6.047 6.047 0 0 0-4.13 6.694 6.056 6.056 0 0 0 5.987 5.11 6.135 6.135 0 0 0 2.728-.661 6.045 6.045 0 0 0 2.682-8.11Zm10.588-.423a3.567 3.567 0 0 0-4.933 1.022 3.552 3.552 0 0 0 1.023 4.923 3.567 3.567 0 0 0 4.933-1.02 3.558 3.558 0 0 0-1.023-4.925Zm11.603-9.084a3.023 3.023 0 0 0-2.85-3.186 3.024 3.024 0 0 0-3.194 2.844 3.027 3.027 0 0 0 6.043.342Zm8.383-2.151a1.96 1.96 0 0 0-1.878 1.102 1.953 1.953 0 0 0 .302 2.152 1.963 1.963 0 0 0 3.42-1.189 1.961 1.961 0 0 0-1.844-2.065ZM80.26 62.85a2.496 2.496 0 0 0-3.452.718 2.485 2.485 0 0 0 .718 3.445 2.496 2.496 0 0 0 3.452-.716 2.484 2.484 0 0 0-.719-3.446ZM24.634 81.115a1.962 1.962 0 0 0-2.714.562 1.954 1.954 0 0 0 .563 2.709c.905.593 2.12.342 2.714-.561a1.953 1.953 0 0 0-.563-2.71Zm41.083-.205a1.956 1.956 0 0 0 .269 3.605 1.963 1.963 0 0 0 2.099-.581 1.956 1.956 0 0 0-2.367-3.024ZM42.95 61.169a6.038 6.038 0 0 0-.605-7.405 6.068 6.068 0 0 0-7.34-1.231 6.043 6.043 0 0 0-2.997 6.8 6.057 6.057 0 0 0 5.87 4.569 6.032 6.032 0 0 0 5.073-2.733Zm-12.108 9.282a3.03 3.03 0 0 0-4.188.873 3.017 3.017 0 0 0 .873 4.181 3.03 3.03 0 0 0 4.19-.87 3.02 3.02 0 0 0-.875-4.184ZM44.97 82.027a2.491 2.491 0 0 0-2.63 2.343 2.49 2.49 0 0 0 2.346 2.626 2.491 2.491 0 0 0 2.632-2.342 2.485 2.485 0 0 0-.628-1.799 2.495 2.495 0 0 0-1.72-.828Zm.027-15.657c-1.44-.087-2.79.7-3.42 1.995a3.55 3.55 0 0 0 .541 3.917 3.567 3.567 0 0 0 3.834.995 3.555 3.555 0 0 0-.955-6.907Zm14.572 3.84a3.023 3.023 0 0 0 .433 5.572 3.033 3.033 0 0 0 3.241-.912c.797-.93.952-2.248.395-3.338a3.028 3.028 0 0 0-4.07-1.322Z" fill="#0033AD"/></svg>