<svg viewBox="0 0 90 90" xmlns="http://www.w3.org/2000/svg"><g fill="none"><path d="M45 90c24.938 0 45-20.062 45-45S69.938 0 45 0 0 20.062 0 45s20.062 45 45 45Z" fill="#2775CA"/><path d="M57.375 52.125c0-6.563-3.938-8.813-11.813-9.75-5.624-.75-6.75-2.25-6.75-4.875s1.876-4.313 5.626-4.313c3.374 0 5.25 1.126 6.187 3.938.188.563.75.937 1.313.937h3a1.28 1.28 0 0 0 1.312-1.312v-.188a9.367 9.367 0 0 0-8.438-7.687v-4.5c0-.75-.562-1.313-1.5-1.5H43.5c-.75 0-1.313.562-1.5 1.5v4.313c-5.625.75-9.187 4.5-9.187 9.187 0 6.188 3.75 8.625 11.624 9.563 5.25.937 6.938 2.062 6.938 5.062 0 3-2.625 5.063-6.187 5.063-4.876 0-6.563-2.063-7.126-4.876-.187-.75-.75-1.125-1.312-1.125h-3.188c-.75 0-1.312.563-1.312 1.313v.188c.75 4.687 3.75 8.062 9.938 9v4.5c0 .75.562 1.312 1.5 1.5H46.5c.75 0 1.313-.563 1.5-1.5v-4.5c5.625-.938 9.375-4.876 9.375-9.938Z" fill="#FFF"/><path d="M35.438 71.812c-14.626-5.25-22.126-21.562-16.688-36 2.813-7.875 9-13.874 16.688-16.687.75-.375 1.124-.937 1.124-1.875v-2.625c0-.75-.374-1.313-1.124-1.5-.188 0-.563 0-.75.187C16.874 18.937 7.124 37.875 12.75 55.688c3.375 10.5 11.438 18.562 21.937 21.937.75.375 1.5 0 1.688-.75.188-.187.188-.375.188-.75V73.5c0-.563-.563-1.312-1.126-1.688Zm19.875-58.5c-.75-.374-1.5 0-1.688.75-.188.188-.188.375-.188.75v2.626c0 .75.563 1.5 1.126 1.875 14.624 5.25 22.125 21.562 16.687 36-2.813 7.875-9 13.874-16.688 16.687-.75.375-1.124.937-1.124 1.875V76.5c0 .75.374 1.313 1.124 1.5.188 0 .563 0 .75-.187C73.126 72.188 82.876 53.25 77.25 35.437c-3.375-10.687-11.625-18.75-21.937-22.125Z" fill="#FFF"/></g></svg>