<svg viewBox="0 0 90 90" xmlns="http://www.w3.org/2000/svg"><g fill="none"><path d="M88.653 55.886c-6.01 24.107-30.43 38.778-54.543 32.767-24.103-6.01-38.776-30.428-32.762-54.534C7.356 10.009 31.775-4.664 55.881 1.347c24.111 6.01 38.783 30.43 32.772 54.54Z" fill="#375BD2"/><path d="M44.977 25 62 34.466v21.008L45.023 65 28 55.55V34.541L44.977 25Zm.03-11-5.93 3.298L22.93 26.27 17 29.568V60.56l5.93 3.27 16.162 8.9 5.93 3.27 5.93-3.298L67.07 63.73 73 60.447V29.44l-5.93-3.27-16.162-8.9-5.93-3.27h.03Z" fill="#FFF"/></g></svg>