<svg viewBox="0 0 90 90" xmlns="http://www.w3.org/2000/svg"><g fill="none"><path d="M88.653 55.886c-6.01 24.107-30.43 38.778-54.543 32.767-24.103-6.01-38.776-30.428-32.762-54.534C7.356 10.009 31.775-4.664 55.881 1.347c24.111 6.01 38.783 30.43 32.772 54.54Z" fill="#2E3049"/><g transform="translate(18 14)" fill="#FFF"><path d="M27 0c-3.81 0-6.9 13.88-6.9 31 0 17.12 3.09 31 6.9 31 3.811 0 6.901-13.88 6.901-31 0-17.12-3.09-31-6.9-31Zm.477 60.25c-.436.584-.872.146-.872.146-1.754-2.042-2.632-5.835-2.632-5.835-3.07-9.92-2.339-31.219-2.339-31.219 1.443-16.909 4.067-20.903 4.96-21.79a.543.543 0 0 1 .699-.057c1.295.922 2.382 4.778 2.382 4.778 3.21 11.962 2.918 23.195 2.918 23.195.291 9.774-1.608 20.715-1.608 20.715-1.461 8.315-3.508 10.068-3.508 10.068Z"/><path d="M53.778 15.573c-1.898-3.32-15.423.895-30.219 9.415C8.763 33.508-1.674 43.107.222 46.426c1.896 3.318 15.423-.896 30.219-9.416 14.796-8.52 25.233-18.118 23.337-21.437ZM1.973 45.97c-.727-.092-.563-.691-.563-.691.891-2.544 3.727-5.197 3.727-5.197 7.044-7.61 25.807-17.573 25.807-17.573 15.322-7.158 20.081-6.856 21.288-6.522a.547.547 0 0 1 .396.583c-.145 1.589-2.942 4.453-2.942 4.453-8.73 8.751-18.578 14.09-18.578 14.09-8.298 5.118-18.694 8.907-18.694 8.907-7.91 2.862-10.441 1.95-10.441 1.95Z"/><path d="M53.71 46.536c1.913-3.311-8.498-12.954-23.242-21.538C15.724 16.414 2.201 12.146.29 15.463c-1.91 3.317 8.5 12.955 23.252 21.538C38.294 45.585 51.8 49.854 53.71 46.536ZM1.558 16.743c-.282-.673.314-.834.314-.834 2.64-.501 6.347.64 6.347.64 10.086 2.306 28.072 13.62 28.072 13.62 13.848 9.73 15.971 14.016 16.29 15.232a.548.548 0 0 1-.303.636c-1.444.664-5.31-.325-5.31-.325-11.92-3.21-21.454-9.09-21.454-9.09-8.565-4.639-17.035-11.777-17.035-11.777C2.043 19.404 1.56 16.75 1.56 16.75l-.002-.007Z"/><ellipse cx="26.928" cy="30.927" rx="3.632" ry="3.647"/><ellipse cx="41.819" cy="16.922" rx="2.107" ry="2.188"/><ellipse cx="7.243" cy="24.362" rx="2.107" ry="2.188"/><ellipse cx="22.642" cy="51.204" rx="2.107" ry="2.188"/></g></g></svg>