<svg viewBox="0 0 90 90" xmlns="http://www.w3.org/2000/svg"><defs><linearGradient x1="49.999%" y1="0%" x2="49.999%" y2="100%" id="a"><stop stop-color="#25376C" offset="0%"/><stop stop-color="#1F1F49" offset="100%"/></linearGradient><linearGradient x1="49.999%" y1="100%" x2="49.999%" y2="0%" id="b"><stop stop-color="#25376C" offset="0%"/><stop stop-color="#1F1F49" offset="100%"/></linearGradient></defs><g fill="none"><path fill="url(#a)" d="M39 0 0 22.5v45L39 90l39-22.5v-45z" transform="translate(6)"/><path fill="url(#b)" d="M39 0 0 22.5v45L39 90z" transform="translate(6)"/><path d="M60.202 19.442H29.596l-3.554 15.59h37.913l-3.753-15.59ZM35.026 56.45V46.088l-9.082-5.726-10.269 7.6 14.019 24.376h5.63l6.614-6.218v-3.06l-6.912-6.61Z" fill="#FFF"/><path fill="#FFF" d="M54.873 37.403H35.127l3.26 8.685-.986 9.771h15.205l-.985-9.771z"/><path fill="#FFF" d="m63.955 40.262-8.985 5.822v10.362l-6.81 6.61v3.06l6.612 6.118h5.53l13.922-24.276z"/></g></svg>