<svg viewBox="0 0 90 90" xmlns="http://www.w3.org/2000/svg"><defs><linearGradient x1="85.355%" y1="14.645%" x2="14.645%" y2="85.355%" id="a"><stop stop-color="#FF2D55" offset="0%"/><stop stop-color="#FFBC5B" offset="100%"/></linearGradient><linearGradient x1="49.966%" y1="0%" x2="49.966%" y2="100%" id="b"><stop stop-color="#A524B3" offset="0%"/><stop stop-color="#FF2D55" offset="100%"/></linearGradient><linearGradient x1="49.966%" y1="0%" x2="49.966%" y2="100%" id="c"><stop stop-color="#A524B3" offset="0%"/><stop stop-color="#FF2D55" offset="100%"/></linearGradient></defs><g fill="none"><circle fill="url(#a)" cx="45" cy="45" r="45"/><path fill="url(#b)" d="M28.125 0v33.75H56.25z" transform="translate(3.757 29.25)"/><path fill="#FFF" d="M3.757 63h28.125V29.25z"/><path d="M18 81a44.813 44.813 0 0 0 27 9 44.813 44.813 0 0 0 27-9H18Z" fill="#FF2D55"/><path d="M9 72a46.088 46.088 0 0 0 9 9h54a46.088 46.088 0 0 0 9-9H9Z" fill="#FC9965"/><path d="M60.367 63H3.758A44.808 44.808 0 0 0 9 72h51.39v-9h-.023Z" fill="#FFBC5B"/><path fill="url(#c)" d="M20.61 0v24.75h20.633z" transform="translate(39.758 47.25)"/><path fill="#FFF" d="M39.758 72h20.61V47.25z"/><circle fill="#FFC95B" cx="60.367" cy="29.25" r="11.25"/><circle fill="#FFC95B" cx="31.883" cy="16.875" r="5.625"/></g></svg>