<svg viewBox="0 0 90 90" xmlns="http://www.w3.org/2000/svg"><g fill="none" fill-rule="evenodd"><circle fill="#988430" fill-rule="nonzero" cx="45" cy="45" r="45"/><circle fill="#7A6A2A" fill-rule="nonzero" cx="45" cy="45" r="43.559"/><circle fill="#BA9F33" fill-rule="nonzero" cx="45" cy="45" r="42.641"/><path d="M19.675 40.194c-.255-.233-.524-.466-.772-.699a72.44 72.44 0 0 0-.757-.699l-.758-.72c-.123-.123-.254-.232-.378-.357-.124-.109-.27-.232-.393-.342-1.005-.954-2.016-1.907-3.008-2.862 1.027.94 2.032 1.872 3.059 2.826l.357.357c.123.123.255.233.378.356l.757.7c.255.232.503.465.758.72.255.253.502.487.757.72Zm-13.34-.144s3.655.378 5.44.633c1.652.234 6.822 1.027 6.822 1.027L6.335 40.05Zm0 0c1.027.088 2.053.197 3.08.306.524.05 1.027.109 1.53.16l.77.088.758.109 3.059.487 1.529.255c.502.088 1.005.183 1.529.27a36.191 36.191 0 0 1-1.53-.197l-1.528-.218-3.059-.451c-.255-.037-.502-.088-.757-.124l-.772-.09c-.503-.05-1.027-.123-1.53-.181a89.065 89.065 0 0 1-3.08-.415l.001.001Zm11.898 2.612s-3.903.991-5.22 1.37c-1.297.356-5.222 1.55-5.222 1.55l10.442-2.92Z" fill="#CFB66C"/><path d="M18.233 42.662c-.867.255-1.728.503-2.607.736l-2.607.7c-.866.254-1.728.502-2.592.757l-1.296.356c-.43.124-.866.233-1.31.357.429-.144.866-.291 1.296-.415l1.296-.415c.866-.27 1.728-.524 2.592-.794.88-.218 1.747-.451 2.628-.662a98.22 98.22 0 0 1 2.6-.62Zm-9.895 5.324c.429-.16 5.38-2.469 6.531-3.008.576-.27 2.25-.864 2.25-.864l-8.781 3.872Z" fill="#CFB66C"/><path d="M8.338 47.986c.378-.144.735-.32 1.099-.488l1.077-.503 2.163-1.04c.72-.343 1.42-.72 2.163-1.042.378-.16.757-.291 1.135-.415l.576-.182c.197-.05.38-.11.576-.16-.72.342-1.478.633-2.199.968-.72.357-1.456.648-2.199.968l-2.199.969c-.738.299-1.458.619-2.193.925Zm.48 2.016s4.485-2.629 6.028-3.474c.809-.45 3.423-1.747 3.423-1.747L8.818 50Z" fill="#CFB66C"/><path d="M8.818 50.003c.757-.467 1.529-.94 2.3-1.42l1.153-.7c.393-.232.772-.45 1.172-.684.393-.233.772-.466 1.173-.684.19-.118.39-.22.597-.306l.611-.306c.808-.393 1.617-.794 2.469-1.136-.772.488-1.566.904-2.36 1.333-.393.218-.793.415-1.186.633-.394.219-.772.452-1.173.663-.393.233-.772.451-1.172.663l-1.187.648-2.396 1.296Zm9.415-4.646s-2.789 2.14-3.692 2.825c-.903.684-3.56 2.607-3.56 2.607l7.252-5.432Z" fill="#CFB66C"/><path fill="#E2CC85" d="M34.238 62.621 32.81 59.92l.83-3.379 5.92-2.286-2.52-5.17 1.245-5.22 2.338-4.676 7.223-1.136 5.308-5.06 11.462.866 2.25 12.255-4.333 15.43-2.468 7.988-10.005.379-4.646-3.219-5.44-2.272z"/><path d="M51.787 62.534s-1.384.634-3.744.488c-.683-.918-5.467-1.347-5.467-1.347s-.597-.182-1.653.255c-1.063.432-2.068.378-3.007.611-.94.233-1.872-.99-2.592-1.245-.72-.27-1.675-.917-1.675-.917l-2.016-.197-4.048-1.711-6.432-6.408-1.748 2.736-.539 3.386 1.945 4.012 5.235 4.77 10.209 2.592 6.05-1.783 7.58-3.204 1.902-2.039Z" fill="#F1D789"/><path fill="#F4ECB4" d="m15.517 39.888 1.296-3.924 1.544-2.534 4.973-.416-1.493 4.355-4.157 7.398 1.725 6.605-3.058 1.528-.94-1.441-.756-3.306-.051-3.714z"/><path d="m21.095 62.265-.954-1.333s-.255-.633-.11-1.187c.145-.56.124-.597.052-.808-.073-.211-.685-.94-.648-1.566.036-.634-.051-.845.414-1.347.488-.488.343-1.332.343-1.332l.633.393.144-.219s.233.182.233.466c.051-.393-.16-2.213.32-2.628.48-.415 1.333 1.944 1.333 1.944l-.524-3.422-1.348-3.51-2.395-3.204-.144-3.532v-.305s-1.1 1.69-1.406 3.024c-.218.917.306 2.031.197 3.35-.088 1.31-.197 1.208.123 1.727.32.52 1.1 1.588.794 2.36-.27.662-1.187.196-1.187.196s-.182.539-.43.736c-.087-.32-.181-.525-.356-.72-.015.123-.051.29-.051.29s-.16-.502-.32-1.135c-.219-.845-.452-1.959-.663-2.556a56.446 56.446 0 0 0-.306 1.384l.124 1.602.597 2.199.576 1.44.56 1.762.488 1.183.393.903.342 2.032 1.653 1.747.881.394.64-.328h.002Z" fill="#F3E19D"/><path d="M16.383 36.684s-1.187 2.016-1.528 4.049c-.342 2.032-.648 4.18-.432 6.946.218 2.79.633 4.5.968 5.724.576 2.032 2.068 4.857 2.068 4.857l.05-.11a7.674 7.674 0 0 1-.596-1.492c-.197-.772-.27-1.69-.452-2.105-.16-.414-.43-.771-.56-1.281-.124-.488-.145-1.26-.525-1.835-.16-.233-.357-.845-.415-1.456-.073-.918.037-1.945-.05-2.789-.161-1.405-.27-2.359-.125-3.095.146-.736.904-2.825 1.37-4.485.306-1.063.123-1.959.684-2.884.56-.917.903-1.725 1.027-2.286.144-.51-1.486 2.242-1.486 2.242h.002Z" fill="#F2E8B0"/><path d="M22.012 35.876s-.611.183-.903.503c-.29.305-.415.56-.808 1.077-.393.517-.415.94-.736 1.588-.32.633-1.026 1.587-1.114 1.93-.087.342-.233 1.943-.415 2.7-.16.758.182 1.69.182 1.69l.415-.088s0 .54.415.904c.415.356.488-1.21.488-1.21l1.55-5.235 2.338-1.587.255-1.282-1.668-.99h.001Z" fill="#F5EEC0"/><path d="M23.148 38.25s-1.1.073-1.638.466c-.219.16-.306.291-.539.488-.43.357-.867.684-1.077 1.152-.234.466-.489 1.172-.663 2.505-.073.56-.073 1.077-.124 1.529-.073.611-.182 1.1-.124 1.44.073.699.794 1.063.864 1.857l1.493-.757 1.405-5.542 2.986-1.872-1.69-1.893-.895.624.002.003Z" fill="#E6DB9D"/><path d="m15.273 75.566.018-.166c.218-1.872.255-3.29.415-4.179.233-1.26.393-1.728.357-2.2-.051-.756-.11-1.31-.036-1.893.109-.771.866-1.689.845-2.322-.015-.503-.27-.83-.489-1.136-.218-.306-.393-.56-.393-.56s1.493-1.027 1.479-5.163c.03.008.06.02.087.036l.735 2.09.503.611 1.93 3.597 2.483 2.41 3.67 2.469 2.3 2.504.233 6.677-3.007 3.903-.493.892a42.773 42.773 0 0 1-10.638-7.57Z" fill="#E5CB7A"/><path d="M24.459 81.954s.05-.83.735-1.37c.11.183.182.358.16.488.124-.217.99-1.616 2.95-1.98 1.959-.357 2.432-1.784 2.432-1.784l4.157-3.779 4.755-4.376 5.782-2.032 2.702-.663s.05.197-.051.634c.502-.036 1.616-.29 2.774-.699.466-.182.903-.255 1.136-.014.342.32.393 1.077.414 1.529.561-.124 1.21-.663 1.728-.612.83.087 1.566 1.063 2.411 1.063 1.114 0 1.616-.684 2.396-1.223.466-.32 1.135-.72 1.514-.99.903-.663 10.456-3.583 10.456-3.583l3.35.218.539 3.597-.288 9.403-.107.104-15.23 7.954-21.11 3.236a42.341 42.341 0 0 1-13.496-4.642l-.108-.48h-.001Z" fill="#D8C173"/><path d="M16.553 76.762c.3-.627.57-1.152.617-1.34.038.379.106 1.209.244 2.09-.29-.246-.577-.496-.861-.75Z" fill="#F1D789"/><path d="m31.974 85.611 2.73-.759.233.073s.124.073.124.32c.342-.196.633-.16.844-.29.11.232.218 1.004.7 1.098.501.11 1.04-.218 1.587-.633.538-.43 1.152-.968 1.616-1.187.17.313.321.637.452.968.611-.487 1.674-2.468 3.189-2.432a5.747 5.747 0 0 1 2.103-2.54c1.405-.955 2.286-1.028 3.386-.94a5.79 5.79 0 0 1 1.587-1.42c.182.073.685.379 1.311.087.634-.29 1.347-1.42 2.286-1.565a2.204 2.204 0 0 1 1.457.306s2.736-2.717 4.624-3.62c-.073-.218-.219-1.04 1.994-2.861.124.11.037.415.124.432.036 0 .576-.233 1.26-.758.845-.633 1.856-1.296 2.468-1.478 1.152-.342 2.374.357 2.374.357.104-.073.22-.127.342-.16.291-.051.502-.088.663-.144-.015.379.196 1.027 0 1.587.228.128.47.23.72.306-.124.27-.393.954-.845 1.282.379.181.43.393.969.576-.219.305-.576.83-.736 1.152-.16.342-.736 1.762-.99 2.3-.27.54-.634 1.53-.809 1.728-.175.199-.808 1.041-1.296 1.456.432-.16 2.2-.699 2.95-.903-.224.327-1.355 2.006-2.443 3.62a42.727 42.727 0 0 1-34.978 4.05l.004-.008Z" fill="#E0CD81"/><path d="M23.328 38.053s-.633 0-.757.088c-.124.087.634.27.866.357.233.087.736.488.867.808.124.306 4.55 2.09 4.55 2.09l3.132-.16 1.08-1.492-2.054-1.799 1.44-4.245-1.908.306-4.587 2.736-2.301.881-.328.43Z" fill="#DFC57C"/><path d="M30.204 39.459a.492.492 0 0 0 .432.233c.648 0 1.245.16 1.492.487.416.525 1.566 2.2 1.566 2.2l2.752.99.178-3.241-3.007-2.09-3.423 1.26v.16h.01Z" fill="#E5CC7C"/><path d="M29.664 40.66s.502.037 1.136-.196c.633-.234 1.674-.736 2.126-.539.633.27.502 1.114 1.187 1.872.415.466 1.172.452 1.602.954.43.503 1.907.27 1.907.27l.561 3.023-2.25 2.884-.736 3.583h-3.042l-2.779-1.103-1.369-3.312.685-3.35.972-4.086Z" fill="#D2C281"/><path d="M35.549 40.806a.824.824 0 0 0 .233.036c-.088.073-.27.233-.197.648.073.415.306.94.11 1.26.156.171.273.375.341.597.124.357.16.684.969.736a1.701 1.701 0 0 0-.32.255s.56.487.844.938c.291-.012 1.063-.252 1.063-.252l.16.11.343-.145s-.32-.123-.088-.902c.219-.685.415-.648.432-.7.017-.05.16-.771.16-1.063.11-.378.197-1.528.197-1.528l-.233-2.541-1.31-.794-1.066-1.029-1.005 1.893-.662.66-.05 1.638.079.183Z" fill="#E2C270"/><path d="M38.701 38.68s.233.662.321 1.172c.031-.1.048-.202.051-.306 0 0 .182 1.005.218 1.42.073-.014.144-.036.16.037.017.072.183.88.144 1.332.303-.5.723-.92 1.223-1.223.292-.182.634-.379.991-.394.56-.014.968.358 1.638.358 1.616 0 3.08-1.188 4.158-1.551.793-.27 1.478-.466 1.958-.904.234-.196.649-.633 1.027-1.281.503-.864 1.027-1.616 1.551-1.711-.237.044-.478.06-.72.05 0 0 .16-.16.432-.378s.598-.488 1.063-.488c.83 0 1.245.124 1.711.124.466-.015.736-.124.736-.124s.488.343 1.587.343c1.1.014 1.835.109 2.41.16.576.051 2.505-.16 3.059-.144.36.014.715.1 1.041.255l-1.784-5.184-6.409-5.602-3.815 2.702-5.87 5.869-5.68 2.104-1.186 1.332v2.032H38.7Z" fill="#CCB360"/><path d="M51.444 35.709s.16-.16.43-.379c.268-.218.597-.488 1.063-.488.83 0 1.245.124 1.711.124.466-.014.735-.124.735-.124s.489.342 1.588.342c1.1.014 1.835.109 2.41.16.576.05 2.505-.16 3.058-.144.361.013.715.1 1.041.255l-.808-2.338-.939-1.784-2.68-2.934-3.24-1.908c-.014-.014-1.114-.306-1.114-.306l-2.913 1.763-2.643 6.837-.05 1.44 1.71.808c.43-.72.904-1.296 1.348-1.369-.401.044-.707.044-.707.044Z" fill="#D5B457"/><path d="M51.408 36.197c-.255.014-.466-.037-.524-.219-.219-.611-.393-.698-.576-.698-.183 0-.43.393-.576.429-.147.036-.32-.452-.32-.452l-.16-.073s-.94.612-1.602 1.333c-.663.72-1.748 1.944-2.236 2.162-.487.218-2.163.292-2.736.416-.573.123-1.208.539-1.296.633-.087.095.256.196.306.291.051.087-.56.05-.612.144-.036.073.144.488.234.699a1.18 1.18 0 0 1 .502-.124c.56-.014.968.357 1.638.357 1.617 0 3.08-1.187 4.158-1.551.794-.27 1.478-.466 1.959-.903.233-.196.648-.634 1.026-1.282.277-.444.547-.859.816-1.165l-.001.003Z" fill="#D2B257"/><path d="M28.224 72.233s-.144-.539-1.478-1.93c-.38-.392-.612-.72-.867-.953-.633-.598-1.005-.758-1.456-1.1-.99-.735-2.068-.735-2.898-1.638-.83-.903-1.797-2.628-2.469-4.391-.662-1.762-.845-2.323-.845-2.374 0-.05.183-.393.415-.342.233.051.233.502.292.612.116.178.247.346.393.502.342.393.83.864 1.077 1.565-.05-.597-.254-1.259-.254-1.259s1.281.808 2.373 1.653c1.1.844 1.551 1.136 1.872 1.674.321.539 1.078 1.96 1.44 2.374.363.416 5.328 1.98 5.328 1.98l2.362 1.762 1.173 2.57-.918 1.44-1.762.38-2.862-1.282-.916-1.243Z" fill="#D2B159"/><path d="M21.866 63.379s.598.953 2.054 1.856c1.31.794 3.386 1.515 5.236 1.945 1.062.255 2.126.451 3.08.466 2.57.036 4.339-.699 6.531-.94 1.187-.123 2.644-.218 4.158-.575 1.944-.467 3.095-.991 4.66-1.728 1.136-.525 2.178-.918 3.022-1.42 1.187-.7 2.053-1.478 3.058-1.711-.123.342-.254.954-1.245 1.587a71.34 71.34 0 0 0 1.245-.05s-.698.414-1.93 1.346c-.757.576-1.761 1.551-2.788 2.2-.663.414-1.384.72-1.857.968-1.152.633-1.617.954-2.374 1.728.27-.015.292 0 .292 0s-.955.124-1.639.488c-.144 0-.393-.051-.83.073-.342.108-.794.357-1.26.487-.662.197-.88.11-.88.11l.109.218s-.864-.015-1.152.014c.05.015.036.037.036.037a.442.442 0 0 0-.144.05c-.138.09-.29.157-.451.197-.087.015-.16.015-.27.037.037.087.32.576.452.864-.11.073-1.748 1.31-1.748 1.31.051.08.093.166.124.255.05.16.073.393.124.502.123.219.196.255.196.255s-.196.037-.539.124c-.29.073-.648.196-1.152.27-.154.02-.31.032-.466.036.073.16.393.772-.197 1.478-.59.706-.772.809-.953 1.26-.092-.07-.19-.13-.292-.183-.196-.087-.466-.217-.56-.393a4.672 4.672 0 0 1-.219.685c-.182.487-.451.968-.502 1.332-.197-.218-.56-.648-1.063-.56-.503.087-.903.771-.99.968 0-.124-.088-.218-.11-.073-.014.16-.29 1.835-1.834 3.19-.015-.343-.015-1.1-.051-1.347-.144.144-.32.356-1.37.808-1.026.451-.863.903-.863.903s-.088-.72.466-1.479c.56-.757.903-1.114.903-1.172a.324.324 0 0 0-.073-.16c-.073-.073-.219-.16-.219-.219.088-.036.954-.45.903-1.31-.05-.772-.378-1.173-.611-1.456-.036-.037.342-.306.291-.393-.036-.051-.502-.394-.56-.576.013-.11.038-.216.072-.32.051-.16.088-.27.073-.38-.036-.181-.233-.684-.291-.735.05.015.415 0 .415 0s-.291-.466-.343-.684c-.05-.218-.16-.794-.218-.903.124.014.43.036.43 0 .015-.11-.27-.291-.144-.432.087.014.255.087.414.291-.087-.233-.232-.684-.539-.866.144-.05.634-.182 1.064.072.43.255.576.612.576.612s.254.197.648.488c.451.357 1.026.864 1.944 1.223.197.11.699.11 1.063.037.159-.038.311-.1.451-.182a.837.837 0 0 1 .16-.073 3.49 3.49 0 0 0-.269-.452c.124 0 .27.015.27.015s.087-.197-.306-.576c.087-.087.197-.144.197-.291-.124-.015-.342-.197-.393-.27.072-.05.182-.218.305-.269-.109-.087-.378-.452-.502-.488a2.29 2.29 0 0 0 .342-.16s-.611-.16-.808-.291c-.197-.144-.488-.393-.663-.466-.182-.073-.502-.11-.633-.255.123.036.32 0 .466 0 .109 0 .16.014.196.014-.014-.05-.014-.16.27-.196.137-.02.27-.063.393-.124 0 0-.27-.014-.576-.306-.306-.291-.56-.524-.735-.56-.182-.037-.524.123-.736.109-.291-.036-.415-.182-.415-.182s-.968.087-3.116-1.223c-1.857-1.137-2.665-2.141-2.665-2.141a3.193 3.193 0 0 1-.503-.233c-.698-.364-1.667-1.122-1.638-2.112l-.004.007Z" fill="#C2A44D"/><path d="M48.655 19.675a.945.945 0 0 1 .432.291c.342.393.56 1.136-.218 1.93.306.109.432.144.699.109-.27.32-.881 1.005-.918 1.602-.036.488.27.633.27.633s-.466.539-.488 1.44a5.82 5.82 0 0 1 .72-.684 19.16 19.16 0 0 1 1.784-1.223c-.007.128.01.256.051.378 0 0 .939-.772 1.728-.429.357.16.196.662.196.662s.489-.181.83.16c.343.343.827 1.226 1.075 1.568.109.16.393.466.684.94.397.662.73 1.362.99 2.089.015-.379.11-.968 1.188-.597 1.077.378 2.3 1.172 3.327 2.736 1.027 1.563 1.281 3.328 1.798 4 .524.648 1.063 1.726 1.1 2.177.036.452-.16 1.908.917 5.847.306-1.223.772-3.94.772-3.94l.255-2.395.291-7.413-7.74-6.43-6.051-4.391-3.94.379.248.56Z" fill="#CAA13E"/><path d="M63.036 30.706s-.109-.72-1.93-1.944c-1.82-1.209-3.24-1.209-4.55-2.235-1.005-.809-2.053-2.666-2.736-3.277-.663-.605-.772-2.352-.772-2.352l2.236-1.872 3.324-4.806 2.81-3.094 1.347 1.872 1.872 2.199 1.041 4.412.38 6.46-3.025 4.638h.003Z" fill="#B59544"/><path d="M65.287 38.448a8.208 8.208 0 0 0-.357-2.898c-.48-1.493-1.53-4.143-2.016-5.136-.197-1.1-.051-1.187.16-1.31.211-.124 1.005-.577 1.44-2.163.435-1.586 1.784-1.638 1.784-1.638l.83-.612 1.26 3.153 1.1 2.847.341 2.177.255 1.857-.597 3.925-2.948 2.665-1.253-2.867Z" fill="#C89D3A"/><path d="M24.139 82.195v-.08a.62.62 0 0 0 .16-.145c.05-.073.087-.16.123-.182.073-.036.416-.144.598-.11.181.035.662.234.917.22.524-.015 1.136-.416 2.105-.234 1.456.27 1.798 1.26 2.643 1.82.576.394 1.172.219 1.26.219h.196c.036 0 .306-.306.451-.291.292.014.32.255.503.27.43.05 1.26-.22 1.675-.11a.8.8 0 0 1 .524.524.809.809 0 0 1-.197.808c-.451.415-.88.809-.968 1.152.111.085.218.175.32.271a42.391 42.391 0 0 1-10.31-4.128v-.004Z" fill="#CEB052"/><path d="M62.913 67.646s1.135-1.514 1.529-2.265c.393-.773-1.245-10.565-1.245-10.565l3.291-10.784-.088-3.51s.16-3.24.54-4.645c.451.808 1.856 1.784 2.162 2.3.144-.99.633-3.08.56-5.308.27.415.918 4.588.918 4.588l.648 2.81.845 2.986.94 3.153.56 2.177.32.524.27.918.255.99.735 2.323.432 1.908.342 3.458c.075.265.128.536.16.809.015.379-.05.597-.05.663 0 .065.124.83.073 1.405-.073.576-.073 1.027-.525 1.44-.452.413-.735 2.883-.735 2.883l-.809-.538s.16-.736-.218-1.406c-.379-.67-1.114-.808-1.53-.698-.414.087-1.244.218-1.514.45-.255.234-.88.955-1.456 1.282-.72.432-1.893.466-2.519.612-.634.144-1.332.576-2.068 1.078-.577.373-1.186.694-1.82.96l-.003.002Z" fill="#CCA847"/><path d="M62.913 83.556s.048.031.14.082a42.768 42.768 0 0 0 13.632-10.104c-.041-1.474-.096-2.984-.155-3.544-.124-1.187-.036-2.395-.073-3.094-.036-.7-.43-3.547-.611-4.282-.197-.735-.576-1.1-.634-1.1-.05.015-.357 1.384-.357 1.728 0 .345-.073 1.173-.073 1.384-.05-.015-.072-.144-.072-.197-.073.182-.16.503-.197.54-.037.036.05-.306 0-.38-.051-.072-.144-.036-.124-.218a2.29 2.29 0 0 1 .05-.32s-.218.32-.377 1.136c-.16.808-.16.83-.219.903-.05.088-.342.378-.357.488-.014.196.27.393.291.502.015.182-.254 1.027-.342 1.44-.087.413-.05 1.223-.144 1.638-.073.379-.144.597-.393.757.182.037.357.088.357.088s.255 1.077-.393 1.995c-.233.32-.291.466-.539.757-.488.539-.867 1.152-.903 1.551a2.605 2.605 0 0 1-.051-.357s-.757.881-1.078 1.384c-.415.648-.99.611-1.152.772-.162.16-.197.451-.144.684-.144.036-.415.088-.597.648-.087.291-.306.576-.648.772-.342.196-.757.255-.969.306.182.05.255.05.343.109-.11.182-.612.466-1.172.83-.561.342-.83.845-.97 1.172-.143.306-.356.503-.698.54.144.087.357.29.466.356-.16.037-.432.037-.917.452-.51.422-.685.546-.918.582h-.002Z" fill="#C39D3C"/><path d="M52.78 86.93a4.17 4.17 0 0 1 .9-.476c1.136-.451 2.337-.539 2.81-.684.452-.144.809-.343 1.37-.452-.016.128-.028.248-.042.361-1.652.52-3.336.938-5.04 1.251h.003Z" fill="#D2BA6B"/><path d="M73.728 57.059s-.233 1.26-.648 2.053c-.415.794-.864 1.893-.864 1.893.003-.248.032-.494.087-.736-.524.306-1.798 1.042-2.16 1.37-.342.305-.917.844-1.063 1.099.342-1.005.699-1.908.758-2.323-.525.379-2.972 2.396-4.246 3.728l-3.968 3.212c-.458.247-.93.467-1.413.661-.684.29-1.492.539-2.09.772a3.31 3.31 0 0 1 .773-1.173c.378-.356 1.514-1.587 1.689-2.16.16-.597.197-.954-.015-1.456-.196.05-.648.073-.953.16-.306.088-.634.415-.634.415s.233-1.333.735-2.592c-.378.014-1.026.123-1.026.123s.902-1.514 2.448-2.57a7.952 7.952 0 0 0-1.384.43c-.903.378-1.893.939-2.628 1.245.414-.576 3.327-4.733 5.06-8.607 1.728-3.867 2.374-4.857 2.753-6.932.196-1.027.144-2.544.196-3.903.05-1.347.218-2.556.11-3.364.45.56 2.14 2.14 2.198 5.672.051 3.532-1.616 8.302-3.386 10.872.432.123 1.552.27 2.702-1.728s1.136-2.556 1.551-3.386c.051.415.036.56.036.56s1.675-2.031 2.469-4.587c.16 1.1.633 2.068-.11 4.085-.662 1.82-1.528 2.265-1.528 2.265s.43-.073 1.062-.452c.11.27.088.576.27.685.182.108.43.291.466.466.197-.292.502-.663.597-.94-.073.576-.124 3.095.144 4.376.561-.05 1.136-.087 1.53-1.1-.27.992-.27 1.588-.088 2.433.299-.204.568-.568.568-.568l.002.002Z" fill="#C0993A"/><path d="M54.808 16.922s-.56.233-1.514.233c-.83 0-.597-.32-1.893-.32-1.995 0-8.964 1.152-10.187 1.136-.794-.015 2.68.342 2.68.342l8.876.124 1.783-.144.663-1.349-.408-.022Z" fill="#A88F33"/><path d="M31.791 34.274s-1.136.867-1.616 1.53c-.48.663-.736 1.099-1.282 1.638a1.11 1.11 0 0 0 .379-.051s0 .144-.088.182a.51.51 0 0 1 .415.144c-.16.087-.597.525-.255 1.042.255.393.794.429.794.429s-.124.357.393.32c1.114-.05 2.36-.539 2.935-.415.576.144.903.197 1.31.903.432.7.809.809.809.809s.255-.649.197-1.617a4.808 4.808 0 0 0 .342-1.638l-.379-2.789-1.653-2.09-2.14 1.187-.16.415v.001Z" fill="#E3C571"/><path d="M33.823 33.86s.16.378.83.414c-.073.16-.073.182-.05.306l.035.305a.677.677 0 0 0 .197-.144c.037.16-.036.415 0 .598.023.11.06.218.109.32a.643.643 0 0 1 .036-.073c.015-.036.144.393.503.72 0-.05.012-.1.036-.144.006.092.036.18.087.255a.266.266 0 0 1-.072-.05s.036 1.151.233 1.747a.818.818 0 0 0 .087-.124c0-.036-.014.32-.05.576-.052.255-.015.612-.015.612a1.91 1.91 0 0 1 .429-.255c.218-.088.576-.357.794-.955.126-.338.224-.686.291-1.04.07.135.12.28.144.431.015.182.357.088.357.088l.073-.794.432-1.799.393-1.114 1.894-2.948 3.42-2.635 2.986.685 2.519-3.423-4.34-2.607-4.107.43-3.727 5.162-2.985 4.683-.54.772Z" fill="#D8B65B"/><path d="M55.332 26.388s-.254.051-.99.432c-.735.382-1.245.503-1.529 1.063-.284.56-.306 1.005-.306 1.005s.503-.218.794-.291c.306-.073.648-.05.612.073a.844.844 0 0 1-.144.233s.576-.015.56.27c-.015.284-.109.597-.218.735-.11.144-.56.357-.611.524-.124.343.05.357-.015.634-.05.27-.29.794-1.078 1.71-.808.919-1.152 1.567-1.152 1.567s-.393-.736-.597-1.37c-.144.073-.917.503-.917.503l-1.791-6.24.036-.416s.16-.196.196-.56c-.269-.088-.305-.16-.662-.502-.358-.342-.648-.758-1.245-1.042-.087-.16-.197-.378-.634-.466-.437-.088-.699-.16-.699-.16s.233-.088.343-.27c-.27.037-.488.124-1.078.11-.597-.015-.663-.037-.99.014-.328.051-.72.197-.867-.305-.16-.124-.502-.015-.794.414-.29.43-.393.772-.953.94-.04.247-.126.484-.255.699-.16.27-.415.539-.758.939-.539.633-.451 1.675-1.31 2.469-.867.793.144-2.2.144-2.2l1.383-3.312 3.94-3.852 6.116-.415.597 3.168 2.986 1.027 1.886 2.876v-.004Z" fill="#D3AE4D"/><path d="m56.301 27.087-2.57-3.706-1.799-1.384s-1.281-2.358-1.369-2.431c-.073-.051-1.281-.182-2.053-.233l.144.357a.945.945 0 0 1 .432.291c.342.393.56 1.136-.219 1.93.306.109.432.144.7.109-.27.32-.882 1.005-.918 1.602-.037.487.27.633.27.633s-.467.539-.488 1.44c.22-.248.46-.477.72-.685.539-.432 1.281-.917 1.784-1.223-.007.128.01.257.05.379 0 0 .94-.772 1.729-.43.356.16.196.663.196.663s.488-.182.83.16c.343.342.83 1.223 1.078 1.566.109.16.393.466.684.939.397.663.73 1.363.99 2.09.015-.292.074-.7.577-.7l-.765-1.368-.003.001Z" fill="#CAA13E"/><path d="M17.767 37.617s-.182-.452 0-1.333c.182-.88.466-1.296.56-2.592.095-1.296.94-2.912.94-2.912l2.337-1.063 1.653.451.488 2.214-2.09 1.152s-.109.487-.699.88c-.59.394-1.405.7-1.601 1.1a3.206 3.206 0 0 0-.255.772s-.597-.124-.954.27c-.379.4-.364.757-.379 1.063v-.002Z" fill="#F4EFC8"/><path d="M22.486 37.027s-.197.124-.343.432c-.144-.233-.488-1.617-.502-2.862-.015-1.245-.089-1.554.199-1.983.288-.429 1.417-.881 1.257-1.654-.16-.735-.83-1.041-1.653-.83-.576.144-1.005 1.369-1.602 1.98-.451.467-.99.394-1.135.649-.197.342-.015.684-.073.902-.015.073-.197.467-.525.94-.662.954-1.784 2.3-1.93 3.51.051-.685.015-.7.197-1.457l-.11-.182.72-2.359.467-1.944 1.041-3.255 1.835-3.328 1.784-1.995 1.857.124.218 2.789 1.063 5.236 2.236 2.752-3.583 2.41-1.42.125h.002Z" fill="#EBCC73"/><path d="M23.6 38.016s-.306.073-.416.015c-.109-.058-.217-.124-.181-.197.036-.073.232-.196.232-.255a.204.204 0 0 0-.182-.218c-.167-.022-.218.087-.218.087s-.16-.123-.29-.144a1.98 1.98 0 0 1 .232-.015 2.27 2.27 0 0 0-.634-.182c.182-.109.54-.43.772-.43.233 0 .379-.035.342-.16-.036-.123-.218-.305-.414-.378.072-.087.124-.218-.051-.576-.183-.356-.11-.597-.051-.684.05-.11.233-.306.32-.43.087-.123.16-.29.306-.378.073-.051.306-.144.539-.233.255-.087.466-.197.611-.087.16.109.088.255.088.255s.502-.183.954.05c.451.218 1.55.357 1.55.357l.395.794-2.607 2.235-1.077.54-.219.035-.001-.001Z" fill="#E5C66B"/><path d="M27.218 34.362s-.808.539-.99.735c.11.015.291.088.218.197-.087.109-.611.488-.903.845-.306.356-.597.808-.699 1.026-.109.197-.939.772-1.223.845.597 0 1.799-.736 2.25-.736-.014.219.124.466.379.488.255.022.99.16 1.98-.451.99-.597.663-1.042 1.078-1.333.794-.524 1.114-.99 1.55-1.281.438-.291.664-.357.664-.357s.014-.219.144-.197a.196.196 0 0 1 .16.124s.757-.539 1.728-.684a.1.1 0 0 1-.051-.051s.073-.037.087-.073c0 0 .051-.073.088-.037.036.037.087.306.16.416.16-.073.466-.758.466-.758l.736-2.104v-1.923l-.576.11-4.32 1.834-2.622 2.717-.306.648h.002Z" fill="#E6BD62"/><path d="M39.655 24.932c.234-.057.458-.147.665-.27-.087.234-.087.489-.466 1.042s-.393.634-.699 1.209c-.306.597-.342 1.456-.634 1.834.131-.063.271-.105.415-.123 0 0-.29.255-.415.524-.123.27-.342.83-.88 1.173-.539.342-1.224.56-1.96 1.369-.735.793-1.492 1.798-1.871 2.16.197-.343.466-1.027.539-1.478.073-.452-.015-.991.109-1.588.124-.596.124-1.026.72-2.068s1.616-4.66 1.616-4.66l2.2-.7.662 1.574v.002Z" fill="#B6933F"/><path d="M38.068 23.6s-.663.953-.844 1.798c-.182.845-.015.772-.124 1.187a1.548 1.548 0 0 0 0 .772c.23-.37.543-.68.916-.903.626-.378 1.136-.648 1.44-.968.306-.343.56-.903 1.223-1.333-.27-.036-.648-.16-.72-.144.27-.306 1.078-.772 1.893-1.332.808-.576.758-.809 2.068-1.384-.43.073-.633-.036-.99 0 .144-.305.648-.451 1.152-.953.504-.503-.32-1.246-.32-1.246l-3.84 2.323-1.857 2.185.003-.002Z" fill="#C49937"/><path fill="#DFC068" d="m27.648 21.866.087-.698 1.1-1.763 1.15-3.094v-4.23l-.087-2.447.182-1.603.138-.509.146-.197.94.488L32.6 9.575l.124 3.4-1.26 5.367-3.598 3.925z"/><path d="M30.51 7.128s-.576.015-.7 2.411c-.122 2.396-.182 3.655-.269 4.842-.087 1.187-.29 1.908-.393 2.607-.102.7-.16 1.653-.488 2.236-.144.269-.451 1.114-1.172 1.747-.809.7-2.016 1.187-2.2 1.224-.32.072-1.944.233-2.606.597-.233.124-.634.27-1.078.684-.881.794-2.053 2.214-2.898 3.925-1.296 2.556-2.592 9.772-2.592 9.772l.291-.488s.037-.648.685-1.784c.634-1.136.452-2.41 1.332-4.588.343-.83.772-1.907 1.296-2.825.83-1.493 1.835-2.774 2.848-3.473 1.652-1.136 3.473-1.383 3.473-1.383l1.959-1.296s.342-.663.794-1.42c.633-1.063 1.44-2.25 1.616-3.976.27-2.556-.379-4.23-.342-5.745.036-1.514.05-2.628.357-2.898.306-.27.087-.168.087-.168Z" fill="#A88F33"/><path d="M30.51 18.56s.864-2.126 1.26-4.012c.072-.378.218-.757.254-1.062.182-1.785.233-2.52 0-3.496-.182-.72-.88-1.369-1.245-1.872-.357-.524-.524-.72-.451-.83.073-.11.356-.291.633-.27a2.168 2.168 0 0 1 1.551.72c.561.649 1.005 2.848 1.005 2.848l.467 2.902 1.187 3.655-4.66 1.42-.001-.002Z" fill="#C99E3D"/><path d="M38.628 16.347s-.16.073-.45 0a.65.65 0 0 1-.292.612c-.306-.124-3.168.124-3.168.124s-1.333-.234-1.748-1.996c-.29-1.172.219-2.788.051-3.852-.255-1.565-.611-1.872-.648-2.359-.036-.487-.073-.611-.073-.917-.16-.037-.255-.087-.415-.087-.036-.144.036-.27-.123-.525.087.036.684.11 1.383.772.576.539.576.735.663.845.109.108.99.864 1.369 1.616.379.753 1.114 3.153 1.281 3.546.051.16.16.32.432.684.423.525 1.042 1.392 1.74 1.536l-.002.001Z" fill="#B58634"/><path d="M33.91 9c.442.713.838 1.452 1.187 2.214.43.968.685 1.762 1.224 2.41-.292-.844-.809-2.505-1.114-3.095-.343-.624-1.042-1.296-1.296-1.529Z" fill="#A88F33"/><path d="M28.959 20.971s-.735.182-2.104.903c-.452.233-.881.43-1.296.612-1.079.487-2.236.938-3.154 1.187.073.087.11.123.11.123s0 .357.196.56c-.109.11-1.566 1.1-1.135 4.413.29-.109.633-.255.684-.255.087.015.109.255.218.255s.466-.144.845-.633c-.015.196-.233 2.177.94 3.51.217-.255.77-1.1.77-1.1l.015-.27s.051-.939.357-1.798c.307-.86.903-1.493.903-1.493l3.116-4.449-.466-1.565Z" fill="#E6C367"/><path d="M26.046 27.504c-.142.1-.3.18-.466.233-.05-.182-.124-.809.306-1.42.502-.736 1.602-1.69 1.907-2.448.197-.488.11-1.711 1.858-3.277 1.747-1.566 2.431-2.104 2.431-2.104l2.826-1.42 3.473 1.369-1.726 6.763-1.34 3.168-5.327-1.005-3.942.141Z" fill="#DCBA5A"/><path d="m28.08 25.668.663-.83v-.59s.735-.197 1.529-1.005c.793-.809 1.893-2.36 2.861-2.265.97.11 1.064 2.104 1.1 2.665.037.561.16 1.835.357 2.52.218.684-2.36 3.276-2.36 3.276l-1.75 1.333-2.4-5.104Z" fill="#E9CE77"/><path d="M30.131 32.578s.54-.845.144-1.027c.233-.524.662-1.078.662-1.078s.306-.757 1.296-1.689 1.603-1.551 1.763-2.177c.099-.408.153-.826.16-1.245.107.087.222.165.343.233.16.073.917.698.808 1.958-.11 1.26-.576 1.785-.576 1.785s-.451.45-.771.684c-.343.233-.467.502-1.042.524a.689.689 0 0 1 .197-.11s-.597-.072-.918.22c-.32.29-1.002 1.186-1.345 1.456-.342.218-.72.466-.72.466h-.001Z" fill="#CDAE50"/><path d="M54.342 18.415a8.77 8.77 0 0 0-2.68-.524c-1.528-.051-3.764.036-5.955.05-2.36.015-4.5-.808-7.471-.953-.488-.292-1.728-1.566-5.6 1.135.233-.014 2.811-.597 3.706.525.903 1.114.648 3.007.525 3.458-.233 1.006-.99 2.469-1.296 3.496-.305 1.026-.233 1.566-.452 2.286-.218.72-.699 1.078-.415 1.908.379-.233.576-.233 1.209-1.653.632-1.42.502-2.432 1.551-3.634 1.027-1.208 2.736-2.861 3.386-3.277.65-.415 5.81-3.094 11.214-.538 1.303-.138 2.279-2.28 2.279-2.28Z" fill="#D2A83E"/><path d="M34.813 17.424a.667.667 0 0 0-.036-.16 1.169 1.169 0 0 0-.197-.292s-1.281-.232-1.93-.16c-1.136.124-2.162 1.53-2.643 2.25-.48.721-1.077 1.835-1.725 2.41a.24.24 0 0 0-.037-.16s.037.05-.036.124c-.072.073-.073.109-.036.144l.11.109c.035 0 1.04-.452 2.41-1.728 1.455-1.333 2.57-2.016 3.152-2.25.311-.133.636-.229.968-.287Z" fill="#C29637"/><path d="M59.673 11.95s-.234.29-.525.61c-.648.685-1.493 1.456-2.214 2.25-.684.758-1.456 1.348-2.322 2.338-.867.99-1.872 2.09-2.127 2.41-.233.32-.415.845-.415 1.114-.123-.087-.269-.182-.269-.182.061.115.135.222.219.32.181.256.465.577.611.773.18.249.308.531.378.83.088.014.648.123 1.348-1.027.699-1.15 1.616-2.41 1.616-2.41l1.456-2.163.918-1.835 1.152-2.053.175-.976h-.001Z" fill="#AC8132"/><path d="M61.165 10.478s-.88.72-1.223 1.152a61.203 61.203 0 0 0-1.152 1.566l.291-.036 1.479-1.31.576-1.027.029-.343v-.002Z" fill="#A88F33"/><path d="M60.896 68.345s-.015-.597.32-.954c.343-.357 1.209-.881 2.054-2.847.845-1.966.939-2.41.939-2.41s-1.515 1.296-2.448 1.601c.218-.451.342-.771.451-1.005-.124-.109-.648-.233-.699-.29.291-.292.452-1.006 1.042-1.479.757-.576 2.14-1.566 3.216-2.448 1.075-.882 3.189-2.934 3.458-3.531.16.232.197.378.197.378s-1.063 1.384-1.616 2.264c-.489.758-.452 1.188-.452 1.188l1.005-.432s.29 1.077-1.027 2.716c.576-.219.809-.088 1.136-.27-.539.343-1.282.809-1.98 2.09-.685 1.282-1.617 2.774-3.19 3.706-1.529.983-2.41 1.718-2.41 1.718l.004.005Z" fill="#A67A2E"/><path d="M56.95 19.173s-.598 1.244-.685 2.213c-.015.233-.073.415-.073.684-.015.867.05 1.835-.144 2.287-.073-.182-.11-.306-.183-.379-.109.306-.305 1.26-.466 1.617-.072-.233-.233-1.042-.218-1.995.015-.954.036-1.136.036-1.333-.036.291-.233.685-.305.917-.11-.196-.233-.45-.38-.662-.087.144-.196.357-.29.466a6.655 6.655 0 0 1-.073-.648c-.014-.379-.037-.866-.014-.968.036-.197.342-.969.99-1.675.772-.845 1.566-2.468 1.798-2.97a699.06 699.06 0 0 1 1.223-2.593h.758l-1.1 2.505s-.662 1.369-1.004 1.872c-.343.503-1.064 1.944-1.384 2.505.232-.306.43-.466.663-.758.225-.204.851-1.084.851-1.084v-.001Z" fill="#8C6228"/><path d="M61.18 10.383a3.15 3.15 0 0 1-.576 1.042c-.452.539-1.42 1.26-1.893 1.835-.432.56-1.296 2.09-.904 3.902.144-.393.416-1.172 1.137-2.053.72-.881 1.492-1.893 1.872-2.68.378-.793.429-1.42.429-1.42l.144-.181-.088-.415-.124-.03h.003Z" fill="#CBA94C"/><path d="M75.925 58.682s-.291-.794-.379-1.514c-.087-.721.144-.864-.124-1.69-.16-.502-.45-.432-.524-.502-.073-.07-.124-.83-.11-1.245.015-.415-.014-.954-.087-1.187-.109-.088-.181-.16-.342-.7-.182-.538-.27-.808-.356-.967-.088-.16-.343-.306-.343-.466 0-.321.291-.488.291-.576-.014-.182-.233-.036-.291-.088-.073-.087.182-.611.088-.684-.037-.036-.292.27-.357.182-.073-.088-.16-.954-.292-1.53-.123-.56-.255-.967-.27-1.135-.013-.16-1.004-2.985-1.244-3.67a17.352 17.352 0 0 1-.488-1.762c-.073-.342-.124-1.042-.16-.969-.037.073-.015.43-.073.416-.051-.015-.233-1.26-.291-1.457-.05-.197-.357-.864-.432-1.347-.073-.488-.233-1.762-.342-2.629-.11-.866-.16-1.223-.16-1.44a8.973 8.973 0 0 0-.088-1.587c-.144-.918-.432-2.032-.684-2.68-.488-1.223-1.785-4.354-2.016-5.133 0-.197.254-.087.254-.087s.634 1.587 1.1 2.81c.451 1.224.88 2.301.99 2.41.088.11.772 1.311 1.078 3.277.306 1.966.415 3.78.597 4.988.087.576.16 1.187.342 1.798.197.663.502 1.348.903 2.396.342.881.597 1.617.736 2.25.16.809.16 1.42.254 1.821.088.342.219 1.026.525 2.016.306.99.757 2.265 1.063 3.058.597 1.587.864 2.913.954 3.62.08.727.35 3.247.277 4.004l.001-.001Z" fill="#A88F33"/><path d="m61.216 10.296-.036.087s.109.037.087.183c.002.2-.01.399-.036.597-.036.255-.11.451-.124.611 0 .343.051.736-.432 1.712-.144.269-.232.502-.305.662-.182.393-.219.452-.38.634.256-.144 1.174-.72 1.64-.634-.321.182-.81.539-1.115 1.005.073.015.379.073.864 0 .808-.124 1.711-.415 2.505-.357.867.05.524-1.041.524-1.041l-1-2.199-1.893-1.332-.299.072Z" fill="#BE9C44"/><path d="M66.153 26.767s-.845-.845-1.187-3.744c-.342-2.912-.27-7.2-.27-7.2l-.684-1.675s-.144-1.114-.502-1.528c-.359-.415-1.063-1.114-1.384-1.457-.32-.342-.684-.808-.902-.88.108-.183.597-1.21 2.468-1.224 1.87-.014 2.448 1.027 2.643 1.405.195.38 1.078 2.016 1.405 5.136.306 3.117.32 3.35.27 4.428-.037.597-.234 1.98-.576 3.458-.313 1.253-.655 2.651-1.282 3.284l.001-.003Z" fill="#A17C34"/><path d="M63.504 29.25c.282.02.563-.043.808-.182.27-.015 1.245.11 1.995-.844.051.217.183.808-.16 1.332.182-.182.452-.255.488-.306.014.27.27 1.1-.808 3.116.29-.32.633-.305.939-.342.014.379.218 1.653-.32 2.338-.357.466-.94.32-.94.32a1.831 1.831 0 0 0 0-.306c-.014-.197-.087-.393-.036-.524a2.612 2.612 0 0 1-.757-.525c-.634-.597-1.457-1.616-1.515-2.373-.073-.845.685-1.027.685-1.027a.81.81 0 0 1-.16-.197c-.037-.123-.074-.32-.219-.48Z" fill="#8C6228"/><path d="M57.888 20.09s-.036-.051-.233.182c.037-.233.073-.452.088-.663.092-.196.213-.377.357-.539-.11.218-.183.415-.183.415s.27-.502.663-.808c.27-.219.612-.32.757-.524.16-.219.124-.255.16-.292 0 0 .358-.233.904-.917.072-.088.182-.182.255-.27.123-.05.414-.182.757-.357.357-.196.757-.465 1.005-.576.487-.218 1.005-.196 1.245-.539.182-.05.378-.597.342-1.063.27.11 1.653.969 2.127 2.847.342 1.333-.27 3.386-.525 4.377-.255.99-.291 1.725-.648 2.177-.452.597-1.908 1.44-2.265 1.857-.306.342-1.223 1.208-1.187 1.834.037.466.612.72.736.809.124.088.123.196.357.144.233-.053.32-.16.415-.16.109.014.109.036.16.036a.525.525 0 0 0 .11-.015s-.037.663-1.588.864c-.11.015-.219.05-.357.073.182-.087.291-.087.488-.357-.219-.036-.845-.073-1.005-.124.05-.087.218-.32.356-.43.124-.108-.014-.143-.123-.087a5.83 5.83 0 0 0-.539.415c-.182.16-.342.379-.634.576-.087-.291-.073-.845.27-1.245-.088.014-.255.27-.415.218a2.319 2.319 0 0 1 .05-.793c.088-.328.561-.903.561-.903l2.287-4.086.487-3.094-5.235 1.017Z" fill="#92723A"/><path d="M57.765 20.265s-.124.087.123.255c-.036.05-.123.232-.233.356-.123.144-.255.233-.306.357-.109.255-.196.43-.196.54 0 .109-.036.808-.342 1.259-.11.16-.233.43-.32.611-.183.32-.343.576-.38.72-.072.255-.123.954-.123.954l.219-.27c-.088.183-.183.38-.321.525.087-.073.342-.255.772-.634.597-.502 1.529-1.346 2.665-2.016-.343.124-.633.124-.866.16.182-.181 1.82-2.104 2.68-2.286a.343.343 0 0 0 .072-.233l-.736-.072-1.493.32-.217-1.152-.998.604v.002Z" fill="#B18E3E"/><path d="M60.139 26.818s-.197.196-.379.685a2.29 2.29 0 0 1-.357-.489c-.27-.45-.684-1.026-1.653-.698-.014-.306-.036-.467 0-.685.16-.036.648-.43 1.136-1.005.343-.393.663-.844.881-1.42.144-.109.393-.29.72-.502.466-.32 1.027-.757 1.114-1.245-.218.087-.684.306-1.384.27.27-.124.685-.255.634-.794.11-.073.197-.124.197-.124a.72.72 0 0 0-.255-.037c-.015-.05-.037-.123-.16-.087-.124.036-.144.037-.16.087-.052.015-.22 0-.343.088-.124.088-.466.378-.597.43l.123-.219s-.356.036-.611.144c-.466.16-1.005.452-1.551.736.05-.088.073-.144.109-.16.036-.017.124-.037.124-.051 0-.015-.036-.144-.015-.197a6.68 6.68 0 0 1 .576-.99c.255-.343.306-.83.306-.83l1.114-.561 3.131-.72 2.032.124-.255 1.405-1.2 2.454-1.027 2.235-1.172 1.37-1.078.786Z" fill="#543E26"/><path d="M65.214 20.736s-1.224 1.514-1.566 1.748c.218-.466 1.566-3.24 2.053-4.013-.109-.087-.254-.087.088-1.44-.291.684-.393 1.041-.633 1.223-.24.182-.27.124-.432.124a.304.304 0 0 0 .036-.182s-1.027-.124-1.728-.124c-.702 0-2.09.38-2.862.685-.612.255-.954.255-1.172.415-.219.182-.342.378-.452.43-.087.05-.502.181-.597.32-.087.143-.233.305-.233.342 0 .036-.036.088.073.05.036-.014.306-.16.612-.342a16.8 16.8 0 0 1 1.281-.662c1.041-.415 1.37-.342 1.835-.43.487-.087 1.187-.291 1.652-.291.467-.014 1.348 0 1.552.036-.088.073-.16.16-.124.467 0 .087-.073.181-.144.393a35.422 35.422 0 0 1-.864 2.09c-.32.684-.684 1.26-.864 1.616-.18.356-.576 1.296-.968 1.798-.392.503-.597.809-.72.918-.123.11-1.005.757-.94.99.16-.05 1.173-.432 1.908-1.26.735-.827.881-1.332 1.456-1.783.575-.452 1.027-1.209 1.296-1.835.226-.583.175-.765.459-1.282l-.002-.001Z" fill="#806031"/><path d="M38.847 32.039s-.16.662-.524.99c-.357.32-.99.597-1.063 1.136-.087.539.634.809.634.809s-.394.648-.394 1.135c0 .503-.014.598.036 1.078a.48.48 0 0 0-.144.144s.036.466.394.757c.357.29.662.466.844.393.028.06.052.12.073.183 0 0 .27-.685.452-1.282.181-.612.342-.525.414-1.347.073-.823.864-2.236.864-2.236l.54-1.207-.88-.684-1.246.13v.001Z" fill="#B6903C"/><path d="M40.486 33.226a5.2 5.2 0 0 0-.502.597c-.233.32-.415.611-.757.736-.342.124-.56.123-.539.466.022.342.342.487.524.662.197.182.357.488.27.83.109-.05.306-.109.488-.502s1.454-2.789 1.454-2.789h-.938Z" fill="#685026"/><path d="M45.504 27.699s.109-.291 0-.502c-.11-.219-.772-.292-1.1-.54-.342-.254-.757-.431-1.1-.32.052-.123.256-.393.088-.451-.16-.051-.757.218-.917.342-.16.124-.525.27-.597.357-.073.088-.197.255-.27.182-.073-.05-.11-.182-.233-.11-.124.073-.72.561-.83.846-.11.284-.357.917-1.1 1.638-.742.72-1.063 1.187-.844 1.456.218.27.32.073.357.306.028.228.015.46-.037.684-.087.38-.233.736-.036.809.502.16.99-.144 1.1-.051.218.196-.124.903.393 1.04.524.145 1.041-.123 1.041-.123l1.908-1.027 1.835-.968.939-1.857-.504-1.55-.096-.161h.003Z" fill="#D4B968"/><path d="M43.704 32.134s-.32-.488.073-.918c.394-.43.954-.612 1.172-.881a.336.336 0 0 0-.16-.109 1.45 1.45 0 0 1 .633-.598.606.606 0 0 0-.414-.196c-.357 0-.576.219-.904.219-.32 0-.356-.16-.356-.16s.539-.052.487-.292c-.05-.255-.144-.255-.144-.255s1.041-.432 1.223-.662c.182-.23.16-.503.197-.612.124 0 .845-.379 1.136-.218.291.16.087.597.087.597s.882-.663 1.331-1.313c.393.036.576-.27.864-.27.357 0 .918.488 1.027 1.53.073.597.182.939.073 1.995-.05.597-.037 1.872.144 2.505.123.502.415.451.415.451a.816.816 0 0 1-.255.393c-.197.182-.219.663-.197.845a3.6 3.6 0 0 0 .11.393s-.233.27-.292.452c-.05.182-.29.306-.466.306-.175 0-.087-.015-.32 0s-.306.05-.452 0c-.146-.051-.255-.11-.196-.576.05-.466-1.799-1.551-1.799-1.551l-3.024-1.078.007.003Z" fill="#CCA849"/><path d="M40.23 36.735s.663.882 3.387.882c1.296 0 1.747-.124 2.016-.197.291-.073 1.383-.502 2.483-1.799.99-1.172.772-1.652.772-1.652l-.576-.088-1.872.255-5.54 2.36-.672.24h.003Z" fill="#585136"/><path d="M42.262 36.954s-2.36.524-2.36-.968c0-1.457 1.457-2.986 1.822-3.255.378-.27 1.281-.576 1.281-.576h2.177l.415 1.1-.182 2.373-3.153 1.325Z" fill="#252211"/><path d="M44.44 32.6s-.452-.416-1.479.144c-1.026.559-1.857 1.728-1.908 2.789-.05.939.772 1.638 2.054 1.675.954.036 1.53-.073 1.82-.144l-.451-.561-.036-3.903Z" fill="#C3B378"/><path d="M43.995 32.832s-.109-.087-.432.087c-.269.144-.662.525-.968.794-.197.16-.32.233-.432.357-.451.539-.83 1.42-.611 1.857.219.437.939.94 2.774.597l-.336-3.692h.005Z" fill="#E6D89C"/><path d="M43.398 33.735s-.291.452-.291 1.173c0 .735.415 1.908 1.944 1.995 1.173.073 1.959-1.69 2.81-2.374.649-.524 1.042-.539 1.042-.539s-.663-.72-2.432-1.652c-1.747-.94-3.706-1.064-4.77.378.503-.036 2.127-.451 2.127-.451l.794.255-1.224 1.216Z" fill="#252211"/><path d="M45.684 34.69c-.05-.11-.087-.256.124-.292.212-.036.306-.015.379.144.073.16.144.292.036.357-.109.058-.393 0-.539-.21Zm-.342-1.028s-.073.051-.036-.05c.014-.124.11-.343.342-.291.233.051.182.305.144.378-.038.073-.233.197-.379.144a.121.121 0 0 1-.073-.182l.002.001Z" fill="#6F674D"/><path d="M25.632 34.128s.576.432 1.245.415c.663-.015 1.515-.699 1.908-1.136.232-.255.432-.524.648-.735.182-.182.305-.27.393-.393.124-.144.255-.415.32-.503-.16.124-.393.343-.633.488-.233.144-.736.415-.94.488-.196.073-2.235 1.152-2.235 1.152l-.706.224Z" fill="#AC924C"/><path d="M26.512 28.748s.32-.219.94-.357c.597-.144 1.798-.255 1.798-.255l.99.432.394 1.492-.72 1.552-.918.576-1.041-1.675-1.44-1.762-.003-.003Z" fill="#9F8E57"/><path d="m25.216 30.08-.342.256s.087-.16.16-.648c.072-.488.452-1.675 1.005-2.36.553-.684.54-.647.54-.647a.364.364 0 0 0-.292.072c.073-.161.539-.737 1.005-1.025.466-.288.648-.379 1.136-.144.487.235.611.357.968.342.357-.014.663-.393.663-.393s.073.233-.197.772c-.269.539-1.332 1.638-1.332 1.638l-2.214 1.515-1.1.624v-.002Z" fill="#EAC970"/><path d="M26.854 28.566s1.602.218 2.09-.233c.014.05.073.05.073.087a.127.127 0 0 1-.037.073c.054-.009.107-.013.16-.015.065.02.13.032.198.037.053-.001.107-.006.16-.015a.272.272 0 0 1-.11.182c.073 0 .144.015.144.073 0 .058.015.233-.072.27a.33.33 0 0 1-.219-.015.899.899 0 0 0 .11.393c.144.27.45.576.864.488 0 0 .217.524-.7 1.69-.123.16-.255.378-.415.56a2.127 2.127 0 0 0-.144.43s1.552-.598 1.996-1.96c.452-1.368.539-2.715.452-3.975-.015-.357-.073-.611-.16-.794-.22-.451-.831-.378-1.078-.124-.358.358-.955 1.246-1.785 1.857-.844.612-.88.72-1.529.99h.002Z" fill="#D7BC6B"/><path d="M24.932 30.532s-.306.182-.466.864c-.16.699.144 1.55.32 1.82.176.27.576 1.005 1.406 1.042a1.54 1.54 0 0 0 .597-.124c.29-.133.56-.302.808-.503.357-.27.648-.502.612-.524-.088-.036-2.2-1.784-2.2-1.784l-.793-.886-.284.096v-.001Z" fill="#585136"/><path d="M26.928 33.43s.43-.036.684-.197c.255-.16-1.492-1.893-1.492-1.893l.124 1.872.684.218Z" fill="#453A25"/><path d="M25.07 30.4s-.218.416-.218.525c-.036.357.073 1.478.16 1.835.088.378.561.953 1.173.953.378 0 .903-.233.903-.29 0-.074-.54-.145-.685-.416-.087-.144-.123-.502-.144-.864-.014-.233-.014-.487.073-.576.197-.218.233-.845.233-.845l.699-1.298h-.92l-1.099.684-.175.292Z" fill="#84754B"/><path d="M24.801 30.801s.72-.954 1.37-1.173c.648-.218.938-.087.938-.087l-.378.969-.54.597.037.306s-.088.808.451 1.369c.54.56.94.539 1.173.539.233 0 .903-.197 1.245-1.005.306-.757.56-1.728-.05-2.702-.598-.969-1.654-1.006-1.858-1.006-.204 0-1.806.08-2.388 2.192v.001Z" fill="#252211"/><path d="M43.289 34.041c-.27-.124-.015-.88.255-1.114.269-.233.611-.502 1.209-.539.218-.014.429.124.393.27-.051.269-.43.648-.772.917-.473.372-.78.604-1.085.466Z" fill="#F7F7E7"/><path d="M28.726 29.913c.196-.015.451.144.502.357.051.233-.124.699-.502.699-.306 0-.466-.38-.466-.488a.557.557 0 0 1 .072-.255c.015-.022.051-.277.394-.313Z" fill="#F8F6DE"/><path d="M25.886 30.08s-.503.233-.735.72a1.91 1.91 0 0 0-.144 1.152c.036.182.218.633.342.794.124.16.291.27.415.254.124-.014.378-.342.378-.538s.015-1.027.255-1.478c.211-.452-.51-.903-.51-.903h-.001Z" fill="#D4C38B"/><path d="M25.959 30.044c-.087.05-.233.124-.197.218.037.087.342.144.452.357.124.219.124.451.087.56a.887.887 0 0 0 .255-.182c.16-.181.357-.429.524-.429.11 0 .219.051.32.051.161 0 .321-.05.343-.218.036-.219-.306-.415-.503-.379.037-.144.088-.357-.072-.502-.16-.146-.663.109-.772.182-.11.073-.437.342-.437.342Z" fill="#E2D59D"/><path d="m37.53 45.342 1.077-.318.306.218s.218.466.56.525c-.11.232-.393.432-.378.597.014.165.16.291.16.291s-.969 1.602.94 3.216c-.452.182-1.027.432-1.333.576.218.05.684.144.88.32.197.177.197.233.38.343.181.11.29.255.254.32-.124-.073-.539-.29-.611-.087-.073.203-1.799.124-1.799.124l-2.913.56s.11-.291-.196-.56c-.357-.32-.794.014-1.26-.343-.611-.466-.633-1.005-.83-1.208.197-.124.597-.306 1.551-.432-.036-.073-.16-.292-.087-.488.087-.255.45-.415.342-.72.16-.036.233-.036.634-.539.378-.503.611-.612.902-.648.292-.037.467 0 1.006-.503.378-.356.254-.662.254-.662s.248-.08.16-.583v.001Z" fill="#CBAC5A"/><path d="M34.347 45.504c.015-.073.073-.11.466-.073.394.037 2.884-.233 3.561-.27.685-.05 3.095-.014 4.267.234a81.72 81.72 0 0 1 2.935.684c.576.16.757.218.735.29-.015.074-.144.145-.219.125-.072-.015-1.98-.597-2.57-.72-.589-.123-2.628-.452-3.743-.432-1.042.015-1.457-.015-2.338.087-.88.11-2.337.255-2.774.197-.432-.051-.343-.051-.32-.124v.002Z" fill="#D6BC6F"/><path d="M40.209 51.211s1.492.809 2.031 1.799c.394.735-.232 1.1-.232 1.1s.844 0 .735.466c-.05.29-1.456 1.077-2.396 1.492-.953.415-.917.393-1.383.466-.452.073-1.69-.144-1.944.218-.255.363-.144.736-.073.794.073.051.662.124.662.124s-.123.342-1.346.379c-1.223.036-1.53.123-1.603.255-.073.123.233.05.794.144.56.087 1.347.144 1.347.144s-.255.218-.917.393c-.758.196-1.945.379-2.301.597.182.124.451.306.576.32-.306.073-.736.233-.809.291.11.073.255.16.255.16s-.612.736-.968.919c-.357.182-2.41 1.135-3.117.953-1.762-.466-1.98-2.395-2.41-2.54-.648-.22-.954.217-1.53-.089.256-.182.394-.29.664-.414-.292-.144-1.799-1.1-1.799-1.1a11.17 11.17 0 0 0-.524-1.005c-.292-.502-.72-1.172-1.042-1.762-.699-1.296-.735-1.893-1.369-2.629.11-.144.488-.124.488-.124l5.309 1.748 9.413.273 2.448-3.495 1.041.124Z" fill="#DFC677"/><path d="M26.265 56.541a.826.826 0 0 0 .196.16c.182.124.452.27.634.488.073-.109.254-.306.576 0 .32.306.72.088.968.16.255.088.269.124.269.124s.144-.124.466-.255c.197-.073.43-.123.685-.196.232-.05.487-.124.662-.124.16.11.736.72 3.044-.182 2.177-.844 2.68-.939 3.044-.808.036-.088.073-.255.633-.233 0-.233-.466-1.027-.466-1.027l-2.57-.88H33l-4.216.771-2.336 1.333-.182.672-.001-.003Z" fill="#C4A859"/><path d="M24.86 55.063s.05.393.633.809c.576.414.757.662.757.662s.11-.144.197-.291c.087-.16.16-.342.305-.393.292-.124.954.109 1.1.072.124-.036.087-.29.218-.29.306-.015.502.196.612.196.11 0 .378-.015.415-.073.036-.058.05-.663.466-.954.451-.32 1.005-.182 1.152-.109 0 .11.014.379.305.393.292.015.32-.036.576.051.256.088.561-.014.7.415.123-.036.415-.073.342-.488.144-.109.27-.182.576-.611.073-.11.196-.233.291-.393.255 0 .56-.051.968.305-.124.088-.197.144-.233.233.107.106.204.22.291.342.11.144.183.321.32.357.307.088.81-.036 1.37 0 .539.037.99.233 1.187.357.073-.036.073-.05.255-.014.182.036.32.05.124-.182.109.05.232.16.342.05.11-.109.196-.269.502-.305.306-.037.415.014.539-.306.16-.393-.393-.393-.393-.393s.255-.233.539-.539c.342-.32.735-.735.83-1.245.16-.94-.757-1.063-.757-1.063l-4.45 1.37-5.439-.27-4.638 2.308h-.003Z" fill="#927D49"/><path d="M20.862 42.211s-.144.182-.233.612c-.089.43-.05.378-.124.684-.073.306-.969 3.35-.633 4.376.336 1.027.918 1.406 1.282 2.236.073.182.144.291.182.451.123.539.014.954.16 1.493.05.182.182.393.379.612.432.45 1.136.88 1.44 1.186.429.452 1.04 1.37 1.82 1.457.415.05 1.005-.124 1.493-.415.432-.27.698-.648 1.152-.864.32-.16.662-.219.968-.291.633-.124 1.209-.144 1.551-.073.524.109 1.762.488 2.448.488a6.659 6.659 0 0 0 1.587-.219c1.042-.305 2.301-.83 3.131-1.063.488-.144.881-.182 1.282-.27.685-.16 1.26-.378 1.587-.793-.218-.255-.487-.648-1.944-.634-1.653.037-3.56.954-4.5 1.1-.94.146-1.347.27-2.396-.11-1.028-.382-1.062-.635-1.062-.635s-1.08-.755-1.531-2.68c-.452-1.925 0-3.327 1.172-4.66.306-.342.233-.648.233-.648s.772-1.041.56-2.016c-.232-.969-1.725-.772-1.725-.772l-8.279 1.448Z" fill="#6E6342"/><path d="M22.107 45.452a.755.755 0 0 0-.087.393c.014.196.072.451.662 1.027.502.502.393 1.062.393 1.062s.253.051.94-.27c.538-.255.72.197.72.197.156-.082.326-.137.502-.16a1.1 1.1 0 0 0 .451-.145s.634.648 1.187.954c.503.27.794.452 1.042.27.233-.16.233-.488.218-.634a1.89 1.89 0 0 0-.218-.378c-.16-.233-.415-.503-.432-.72-.037-.502.379-1.1.29-1.245-.087-.146-.414-.182-1.222.109-.837.276-4.45-.459-4.45-.459l.004-.001Z" fill="#39331F"/><path d="M24.014 48.707s-.414-.394-.269-2.302a2.37 2.37 0 0 1 .524.051s.226 1.479-.255 2.25Z" fill="#292311"/><path d="M21.059 40.755a1.14 1.14 0 0 0 .16-.144c-.144.27-.809 1.347-.27 3.044.54 1.689 1.893 2.948 3.56 3.007 1.668.058 2.545-.758 3.547-1.98.393-.488.845-1.1 1.245-1.515.597-.649 1.063-.83 1.063-1.456 0-1.282-1.31-1.858-3.24-2.433-1.93-.575-3.67-.504-4.573-.11-.88.43-1.26.88-1.493 1.587Z" fill="#252211"/><path d="m27.255 49.282.144-.073s.036-.576.27-.561c.232.036.341.343.32.452-.015.109-.073.291-.306.269-.306.007-.43-.087-.43-.087h.002Z" fill="#3F3824"/><path d="M26.607 46.835s.144-.05.32.124c.144 0 .772-.073.969.05.196.125.255.234.255.234s-.736.16-1.137 0c-.407-.139-.407-.408-.407-.408Z" fill="#2D2815"/><path d="M29.847 46.944c0-.036-.393-.306-.808-.394-.073-.014-.088.037-.144.037-.036-.015-.05-.124-.05-.124l-.237.124s-.036.051.087.144c.11.088.292.16.343.306.05.146.05.196.073.219.014.014.269 0 .393-.073s.357-.192.342-.24l.001.001Z" fill="#82764F"/><path d="M26.17 48.422s.073-.502.56-.524c.503-.036.598.451.598.451l-.292.292c0-.007-.218-.313-.864-.219h-.002Z" fill="#2D2816"/><path d="M29.338 46.26s-.27.29-.867.378c-.05-.073-.16-.218 0-.451s.342-.306.524-.233a.426.426 0 0 1 .343.306Z" fill="#574F35"/><path d="M30.437 46.617c.015-.073-.036-.088 0-.124.036-.037.233-.11.27-.073.014.015 0 .073 0 .144 0 .07 0 .144-.037.196-.05.073-.196.11-.27.088-.072-.022-.087-.124-.087-.144.036-.014.124-.05.124-.087Zm1.243-.787c0-.036.124-.109.197-.109.109 0 .109.087.124.11.036.014.036-.015.072.05.037.066.088.182.051.255-.037.073-.182.124-.218.11-.05-.037-.211-.365-.226-.416Z" fill="#82764F"/><path d="M29.177 46.784s.16.036.379.219c-.073.05-.182.109-.182.109s-.015-.168-.197-.328Z" fill="#6E6342"/><path d="M28.82 45.182c-.036-.036.11-.123.197-.109.087.014.124.073.218.087.095.015.11-.036.144-.073.035-.036.16-.014.182 0a.406.406 0 0 1 .037.051.202.202 0 0 1 .072-.144.23.23 0 0 1 .197-.036c.014.05.087.233.073.269-.014.037-.233.088-.27.05.037.089.197.27.219.307.021.036-.16.124-.233.11-.102-.008-.728-.372-.837-.51l.002-.002Zm.954-1.209a.169.169 0 0 0-.073-.087c-.05-.014-.218 0-.218.087 0 .088.144.576.306.83.182.256.306.466.43.525.08.037.175.005.218-.073.014-.037.05-.306.036-.94-.014-.633-.036-1.245-.073-1.281-.036-.037-.182-.036-.232.036-.051.073-.38.794-.394.903Z" fill="#585136"/><path d="M29.126 47.701s-.254-.16-.502-.05c-.233.109-.219.539-.219.539a.345.345 0 0 0 .321-.037c.16-.109.364-.29.4-.451Z" fill="#574F35"/><path d="M29.607 48.277c-.015-.144-.144-.144-.144-.218a.164.164 0 0 1 .16-.124c.073 0 .144.087.233.144.087.05.218.144.233.255.014.11-.144.414-.32.414-.177 0-.124-.328-.16-.473l-.002.002Zm1.405-.197s-.291.088-.27 0c.022-.087.088-.109.183-.109a.288.288 0 0 1 .182-.088.158.158 0 0 1 .109.037s.197-.088.255-.037c.058.051.015.051.05.11a.5.5 0 0 1 .088.218c0 .058-.218.182-.393.16-.204-.043-.168-.254-.204-.29Zm1.697-.328s.087.051.015.11c-.051.05-.306.144-.525.16-.219 0-.415.036-.415-.036 0-.073.182-.219.291-.255a.232.232 0 0 1 .182-.088c.088 0 .43-.036.525-.05.087-.015.16.035.109.108-.022.051-.182.051-.182.051Zm.502-2.248s-.11.233-.233.233c-.123-.015-.123-.051-.123-.088 0-.05.123-.181.109-.218-.036 0-.124 0-.11-.087 0-.073.124-.16.233-.144a.48.48 0 0 1 .292-.11c.124 0 .233.037.233.11 0 .073-.144.232-.197.27-.058.058-.131.095-.204.035v-.001Zm-1.66 4.303s-.144.015-.144.088c0 .036.036.036.087.014a.396.396 0 0 0 .088-.014c.014.014.014.087.123.087a.692.692 0 0 0 .255-.087c.088-.036.16-.073.16-.144-.036-.124-.109-.183-.218-.183a.29.29 0 0 0-.16.037s-.037-.073-.16 0c-.124.073-.11.073-.073.11.065.057.043.095.043.095l-.001-.003Zm-.823.758c0-.037.182-.11.233-.088.05.015.196.291.196.32 0 .037-.182.124-.255.124-.073 0-.196-.124-.196-.144 0-.014.087-.036.087-.05.022-.037-.065-.124-.065-.16v-.002Zm-.576-1.064c.037-.014.037-.05.088-.087a.125.125 0 0 1 .109-.014.177.177 0 0 1 .124-.088c.087-.015.16 0 .144.036 0 .11.073.182.073.27 0 .087-.051.196-.233.27-.182.05-.43.05-.466.036-.037-.015-.073-.16-.037-.233a.604.604 0 0 1 .197-.19h.001Z" fill="#82764F"/><path d="M30.384 49.55s-.124.074-.124.11a.324.324 0 0 0-.014.11c0 .02.16-.015.182-.037.007-.015-.044-.144-.044-.182Z" fill="#6E6342"/><path d="M29.301 49.209c.073.015.196 0 .291.036.073.037.124.11.05.197-.072.087-.143.218-.305.196-.182-.014-.357-.109-.357-.182a.349.349 0 0 1 .088-.255c.073-.058.109-.021.233.008Z" fill="#585136"/><path d="M29.214 49.282s-.233.182-.292.27c-.073.087-.43.538-.538.632.036-.063.077-.124.123-.181a.745.745 0 0 0-.306.393c-.087.27.489.415.867.524.378.11.524.144.524.144a4.067 4.067 0 0 1-.357-.662c-.144-.342-.218-.379-.123-.54.072-.16.182-.268.182-.392a2.237 2.237 0 0 0-.08-.188Z" fill="#574F35"/><path d="M20.913 49.857a.43.43 0 0 0 .16 0c.109-.015 1.245-.432 2.432-.357a13 13 0 0 1 2.629.432c1.492.393 3.349 1.172 4.55 1.617.32.123.634.342.864.429.918.357.954.357 1.493.451.634.088 1.282-.123 1.96-.269.83-.182 2.249-.27 3.494-.452.403-.055.8-.145 1.187-.269 0 0-.99.99-3.364 1.347-.96.146-1.935.158-2.898.037a8.842 8.842 0 0 1-1.638-.292c-.43-.124-1.311-.451-2.396-.72-.757-.197-1.602-.342-2.57-.524-2.389-.437-4.98-.94-5.904-1.427v-.003Z" fill="#252211"/><path d="m19.675 40.624-6.066-5.665"/><path d="M18.233 45.357c-.576.488-1.187.954-1.784 1.405l-1.798 1.382c-.612.451-1.21.917-1.821 1.369a33.87 33.87 0 0 1-1.872 1.296c.576-.488 1.187-.94 1.798-1.383.612-.444 1.246-.88 1.836-1.33l1.799-1.384c.618-.451 1.215-.917 1.842-1.354Zm-3.182 5.097s.648-.539 1.456-1.296c1.005-.939 2.236-2.14 2.629-2.358l-4.086 3.655Z" fill="#CFB66C"/><path d="M15.05 50.454c.322-.32.664-.633 1.006-.94l.524-.45c.16-.145.343-.307.503-.467.32-.32.633-.663.953-.99.16-.165.327-.32.503-.466.088-.078.186-.144.29-.197.089-.05.183-.144.307-.16-.073.11-.16.16-.233.255-.087.073-.16.16-.233.232-.16.16-.342.306-.502.452-.343.291-.7.576-1.042.88-.342.306-.662.634-1.005.94-.37.314-.713.62-1.07.912v-.001Zm4.355-2.913s-2.373 2.323-2.861 2.702l2.861-2.702Z" fill="#CFB66C"/><path d="M19.405 47.541a7.75 7.75 0 0 1-.685.699l-.72.684c-.233.233-.452.467-.699.7-.255.218-.488.431-.757.633l.699-.685c.233-.232.488-.429.735-.662l.7-.684c.24-.24.473-.474.727-.685Zm.11 1.26c-.22.61-.477 1.206-.772 1.784-.612 1.223-1.53 2.752-1.93 3.532l2.701-5.316Z" fill="#CFB66C"/><path d="M19.514 48.801c0 .27-.073.503-.16.735a7.232 7.232 0 0 1-.29.685 12.1 12.1 0 0 1-.358.663c-.124.211-.27.429-.379.648l-.735 1.296c-.255.432-.503.866-.772 1.281.182-.466.43-.902.663-1.332.255-.432.488-.864.72-1.31a7.61 7.61 0 0 0 .306-.685c.109-.233.218-.452.306-.663.109-.233.196-.451.305-.662.124-.226.226-.445.393-.656h.001Z" fill="#CFB66C"/><path d="M22.107 54.772s-.72.954-.648 2.162c.196-.633.444-1.602.648-2.162Zm.684.956s-.255 2.592-.466 3.866c.299-1.473.357-1.349.466-3.866Zm4.77 4.02s-1.078 3.168-1.1 4.048c.233-.905.684-2.755 1.1-4.05v.002Z" fill="#DEC270"/><path d="M30.08 54.576s1.748 2.883 3.059 5.344c-.355-1.238-1.171-3.51-3.059-5.344Z" fill="#CBAF59"/><path d="M34.777 58.82a53.018 53.018 0 0 1 2.592 5.236c-.145-1.238-.54-3.357-2.592-5.235Z" fill="#E3C677"/><path d="M48.583 63.072c.29-.182.866-1.173 1.369-1.42.502-.255.88-.306 1.332-.808.451-.525.576-.845 1.565-1.26 1.384-.597.432-1.37.432-1.37.153-.149.316-.287.488-.414.357-.27.772-.597.736-1.172-.05-.969-.233-2.374-1.027-3.19.772-.16 2.25-.269 3.168-.502 1.063-.27 1.551-.648 1.551-.648s-.611-1.041.379-2.09c.99-1.048 1.798-1.674 2.396-2.847-.685-.087-1.728-.451-4.392.56.144.068.283.146.416.233 0 0-1.639.452-2.236.955-1.041.88-1.172 1.601-2.3 2.14-1.13.54-2.265.394-3.204.83-.94.437-1.078.809-1.42.97.072.086-.015.232.123.356-.087.124-.597.953-1.114.953.051.197.488.343.488.343s-.32.233-1.136.291c.415.432.808.903 1.893 1.587-.087.182-.451.452-.306.794.16.343.576.809 2.236 1.187-.845.036-1.835.233-3.168.051-1.333-.16-1.551-.255-2.374-.05.088.087.32.087.524.32-.218.014-1.587-.16-2.053.451-.488.633-.699 1.675-.662 2.374-.255.124-.503.342-.38.794.125.451.773.597 1.188.88.415.306.451.415.845.343.414-.088 1.026-.502 1.383-.502s.612.269.612.269.968-.466 1.063-.379c.087.088.014.648.109.736.096.065 1.187-.583 1.478-.765h-.002Z" fill="#ECD592"/><path d="M69.75 33.932c-4.55-11.752-15.8-13.93-15.8-13.93H21.851l.124 11.971h6.392v26.731h-6.516v11.95H53.06c7.521 0 13.55-7.56 13.55-7.56 9.656-13.703 3.139-29.162 3.139-29.162Zm-16.522 21.11s-2.448 3.531-5.111 3.531h-5.328l-.127-26.57H49.5s3.168.662 5.381 6.931c0 0 2.935 8.976-1.653 16.107Z" fill-opacity=".8" fill="#FFF"/></g></svg>