<svg viewBox="0 0 90 90" xmlns="http://www.w3.org/2000/svg"><g fill="none"><path d="M88.653 55.886c-6.01 24.107-30.43 38.778-54.543 32.767-24.103-6.01-38.776-30.428-32.762-54.534C7.356 10.009 31.775-4.664 55.881 1.347c24.111 6.01 38.783 30.43 32.772 54.54Z" fill="#E9E9E9"/><path fill="#343434" d="m44.994 11-.459 1.55v44.963l.459.455L65.987 45.63z"/><path fill="#8C8C8C" d="M44.994 11 24 45.63l20.994 12.338V36.144z"/><path fill="#3C3C3B" d="m44.994 61.92-.259.313v16.016l.259.751L66 49.589z"/><path fill="#8C8C8C" d="M44.994 79V61.92L24 49.588z"/><path fill="#141414" d="M44.994 57.968 65.987 45.63l-20.993-9.487z"/><path fill="#393939" d="m24 45.63 20.994 12.338V36.144z"/></g></svg>