<svg viewBox="0 0 90 90" xmlns="http://www.w3.org/2000/svg"><g fill="none"><circle fill="#1969EE" cx="45" cy="45" r="45"/><path d="M42.067 11.897c1.645-.863 4.15-.863 5.796 0l16.796 8.797c.991.519 1.535 1.293 1.633 2.091h.016v44.22c-.022.871-.571 1.736-1.65 2.301l-16.795 8.797c-1.646.863-4.15.863-5.796 0L25.27 69.306c-1.074-.562-1.589-1.434-1.614-2.301a3.343 3.343 0 0 1 0-.216V23.07a2.543 2.543 0 0 1-.001-.143v-.14h.008c.075-.808.595-1.562 1.607-2.092l16.796-8.797Zm21.597 35.558-15.801 8.277c-1.646.862-4.15.862-5.796 0L26.3 47.474v19.443l15.767 8.215c.89.472 1.814.932 2.717.99l.18.006c.942.003 1.856-.471 2.783-.92l15.917-8.361V47.455Zm-42.74 18.589c0 1.693.2 2.807.594 3.592.327.65.817 1.147 1.712 1.752l.051.034c.197.131.413.269.676.43l.311.19.954.57-1.368 2.243-1.068-.64-.18-.108c-.308-.19-.564-.352-.803-.511-2.551-1.706-3.503-3.566-3.521-7.435v-.117h2.643Zm22.719-30.44c-.123.04-.237.089-.342.144l-16.796 8.797-.05.027-.014.009.026.014.038.021 16.796 8.797c.105.055.22.103.342.145V35.603Zm2.644 0v17.954a2.41 2.41 0 0 0 .341-.145l16.796-8.797.05-.027.015-.008-.027-.016-.038-.02-16.796-8.797a2.402 2.402 0 0 0-.341-.145Zm17.377-9.682-15.067 7.892 15.067 7.892V25.922Zm-37.364.019v15.746l15.032-7.873L26.3 25.941Zm20.328-11.726c-.873-.458-2.453-.458-3.327 0l-16.796 8.797-.05.027-.014.009.026.015.038.02 16.796 8.797c.874.458 2.454.458 3.327 0l16.796-8.797.05-.027.015-.008-.027-.015-.038-.021-16.796-8.797Zm19.518.964 1.068.64.18.11c.308.188.564.35.803.51 2.551 1.706 3.503 3.566 3.521 7.435v.117h-2.643c0-1.694-.198-2.807-.593-3.592-.326-.65-.817-1.147-1.712-1.752l-.051-.034a20.667 20.667 0 0 0-.676-.43l-.311-.19-.954-.57 1.368-2.244Z" fill="#FFF"/></g></svg>