<svg viewBox="0 0 90 90" xmlns="http://www.w3.org/2000/svg"><g fill="none"><path d="M88.653 55.886c-6.01 24.107-30.43 38.778-54.543 32.767-24.103-6.01-38.776-30.428-32.762-54.534C7.356 10.009 31.775-4.664 55.881 1.347c24.111 6.01 38.783 30.43 32.772 54.54Z" fill="#F8F8F8"/><path d="m33.514 22.015-.171.025v12.432h38.651l.005-6.23c.005-4.47-.01-6.227-.049-6.232-.372-.014-38.313-.014-38.436.005Z" fill="#02A6C2"/><path d="m30.466 39.245-.005 6.25-.005 6.256h-7.164l-1.354-.001h-.24l-.45-.001c-2.809-.005-3.244-.022-3.248-.071V39.304c.004-.035.816-.052 3.637-.057l.504-.001h.267l8.058-.001Zm2.877 0 13.92.01 13.919.014v12.477l-13.905.005h-1.156l-2.947-.001h-.353l-1.366-.001h-.33l-.645-.001h-.931l-.299-.001-.58-.001-.828-.001-.52-.001c-2.446-.004-3.96-.01-3.96-.018l-.001-.117-.001-.14-.003-.865v-.344c-.002-.303-.002-.645-.003-1.02v-.466c-.002-.4-.002-.83-.003-1.284v-.554c-.002-.47-.002-.961-.003-1.465l-.005-6.226Z" fill="#5FCADE"/><path d="M33.353 56.548c-.01.024-.015 2.834-.015 6.24l.005 6.192 6.243.01 6.243.01v-6.24c0-3.432-.015-6.242-.03-6.242-.014-.004-2.818-.01-6.228-.014-4.11-.005-6.208.01-6.218.044Z" fill="#ABEBF4"/></g></svg>