<svg viewBox="0 0 90 90" xmlns="http://www.w3.org/2000/svg"><g fill="none" fill-rule="evenodd"><circle fill="#FDC134" fill-rule="nonzero" cx="45" cy="45" r="45"/><path d="M27.934 23.808h17.141c10.427 0 18.33 5.605 21.271 13.76h5.34v4.929h-4.215c.082.779.125 1.572.125 2.378v.121c0 .908-.054 1.8-.158 2.674h4.248v4.93h-5.441c-3.018 8.041-10.86 13.592-21.17 13.592H27.934V52.6h-5.957v-4.93h5.957v-5.173h-5.957v-4.93h5.957V23.809ZM32.726 52.6v9.17h12.35c7.62 0 13.282-3.673 15.918-9.17H32.726Zm29.736-4.93H32.726v-5.173H62.47c.11.814.166 1.648.166 2.5v.12c0 .871-.059 1.723-.174 2.553ZM45.075 28.223c7.656 0 13.336 3.77 15.955 9.345H32.726v-9.345h12.35Z" fill="#FFF"/></g></svg>