<svg viewBox="0 0 90 90" xmlns="http://www.w3.org/2000/svg"><g fill="none"><path d="M88.653 55.886c-6.01 24.107-30.43 38.778-54.543 32.767-24.103-6.01-38.776-30.428-32.762-54.534C7.356 10.009 31.775-4.664 55.881 1.347c24.111 6.01 38.783 30.43 32.772 54.54Z" fill="#F7F7F7"/><path d="m58.259 25.249-9.181 13.64c-.635.929.586 2.053 1.465 1.271l9.034-7.871c.244-.196.586-.049.586.293v24.591c0 .343-.44.49-.635.245L32.181 24.662C31.3 23.587 30.032 23 28.616 23h-.977C25.1 23 23 25.102 23 27.693v34.614C23 64.897 25.1 67 27.688 67a4.707 4.707 0 0 0 4.005-2.249l9.18-13.64c.635-.929-.586-2.053-1.465-1.271l-9.034 7.822c-.244.196-.586.05-.586-.293V32.827c0-.343.44-.49.635-.245L57.77 65.338C58.65 66.413 59.968 67 61.335 67h.977A4.692 4.692 0 0 0 67 62.307V27.693C66.951 25.103 64.851 23 62.263 23a4.707 4.707 0 0 0-4.004 2.249Z" fill="#000"/></g></svg>