<svg viewBox="0 0 90 90" xmlns="http://www.w3.org/2000/svg"><g fill="none"><path d="M88.653 55.886c-6.01 24.107-30.43 38.778-54.543 32.767-24.103-6.01-38.776-30.428-32.762-54.534C7.356 10.009 31.775-4.664 55.881 1.347c24.111 6.01 38.783 30.43 32.772 54.54Z" fill="#E9007A"/><path d="M45 63.576c6.355 0 11.506 3.005 11.506 6.712S51.355 77 45.001 77c-6.355 0-11.506-3.005-11.506-6.712s5.151-6.712 11.506-6.712Zm16.037-9.288c3.177-5.52 8.347-8.492 11.548-6.638 3.2 1.853 3.219 7.83.042 13.35s-8.347 8.493-11.548 6.639c-3.2-1.854-3.22-7.83-.042-13.35Zm-43.62-6.64c3.203-1.854 8.374 1.117 11.552 6.636 3.177 5.52 3.156 11.499-.046 13.353-3.203 1.855-8.375-1.116-11.552-6.636-3.177-5.52-3.156-11.498.046-13.353Zm43.665-25.284c3.2-1.853 8.37 1.119 11.547 6.639 3.178 5.52 3.159 11.497-.042 13.35-3.2 1.854-8.37-1.118-11.547-6.638-3.177-5.52-3.159-11.497.042-13.35ZM17.369 29c3.178-5.52 8.35-8.49 11.552-6.636 3.202 1.855 3.223 7.833.046 13.353s-8.349 8.49-11.552 6.636c-3.202-1.855-3.223-7.833-.046-13.353Zm27.632-16c6.354 0 11.505 3.005 11.505 6.712s-5.151 6.712-11.505 6.712c-6.355 0-11.506-3.005-11.506-6.712S38.646 13 45.001 13Z" fill="#FFF"/></g></svg>