<svg viewBox="0 0 90 90" xmlns="http://www.w3.org/2000/svg"><g fill="none"><path d="M88.653 55.886c-6.01 24.107-30.43 38.778-54.543 32.767-24.103-6.01-38.776-30.428-32.762-54.534C7.356 10.009 31.775-4.664 55.881 1.347c24.111 6.01 38.783 30.43 32.772 54.54Z" fill="#7B3FE4"/><path d="M60.277 34.191a3.762 3.762 0 0 0-3.764 0l-8.635 5.155-5.867 3.361-8.635 5.154a3.762 3.762 0 0 1-3.763 0l-6.864-4.033a3.872 3.872 0 0 1-1.881-3.25v-7.955a3.64 3.64 0 0 1 1.881-3.25l6.753-3.921a3.763 3.763 0 0 1 3.764 0l6.753 3.921a3.873 3.873 0 0 1 1.881 3.25v5.154l5.867-3.474V29.15a3.64 3.64 0 0 0-1.881-3.25l-12.51-7.395a3.762 3.762 0 0 0-3.763 0L16.883 25.9A3.642 3.642 0 0 0 15 29.15v14.902a3.642 3.642 0 0 0 1.882 3.25l12.73 7.394a3.762 3.762 0 0 0 3.765 0l8.634-5.042 5.867-3.473 8.635-5.043a3.763 3.763 0 0 1 3.764 0l6.752 3.922a3.872 3.872 0 0 1 1.882 3.25v7.955a3.64 3.64 0 0 1-1.882 3.25l-6.752 4.033a3.763 3.763 0 0 1-3.764 0l-6.753-3.921a3.872 3.872 0 0 1-1.882-3.25v-5.154l-5.867 3.473v5.155a3.64 3.64 0 0 0 1.882 3.25l12.73 7.395a3.763 3.763 0 0 0 3.764 0l12.73-7.396A3.874 3.874 0 0 0 75 59.85V44.949a3.642 3.642 0 0 0-1.882-3.25l-12.841-7.507Z" fill="#FFF"/></g></svg>