<svg viewBox="0 0 90 90" xmlns="http://www.w3.org/2000/svg"><g fill="none"><path d="M28.69 36.984c.56.038 1.2-.035 1.84-.083a7.513 7.513 0 0 0 1.976-.406c.393-.142.757-.371.912-.78.285-.754.349-1.546.125-2.314-.348-1.195-1.227-2.001-2.179-2.739-.827-.642-1.765-.9-2.787-.728-1.764.297-3.56 1.854-3.776 3.685-.096.806-.141 1.575.325 2.302.314.489.641.898 1.288.95.73.058 1.458.122 2.276.113Zm33.312.011c.397.028 1.026-.05 1.656-.091.558-.036 1.086-.163 1.426-.692.477-.741.673-1.546.553-2.41-.212-1.514-1.099-2.574-2.383-3.323-1.026-.598-2.122-.788-3.274-.374-.67.24-1.21.688-1.717 1.162-.897.84-1.583 1.802-1.684 3.085-.093 1.178.387 1.888 1.507 2.218 1.204.353 2.44.398 3.916.425Zm6.07 5.117c-.002-.743.01-1.491-.226-2.203-.297-.9-.22-.913-1.11-.835-1.218.107-2.31.62-3.386 1.155-1.528.76-2.976 1.658-4.397 2.596-1.15.759-2.344 1.464-3.34 2.433-.785.765-1.488 1.59-1.665 2.73-.055.353.062.56.444.652.36.087.721.159 1.099.158 1.417-.002 2.8-.253 4.166-.585 1.758-.427 3.466-1.01 5.079-1.842 1.071-.553 2.084-1.188 2.904-2.09.215-.236.374-.478.37-.824-.007-.448.039-.897.062-1.345Zm-44.9-.116c.016.317.076.856.064 1.393-.012.502.233.838.567 1.158 1.382 1.327 3.078 2.109 4.842 2.771 1.147.43 2.321.765 3.519 1.028 1.2.263 2.409.454 3.638.488a3.72 3.72 0 0 0 1.298-.178c.358-.12.47-.293.412-.647a3.05 3.05 0 0 0-.287-.889c-.55-1.09-1.399-1.923-2.383-2.6-2.54-1.75-5.117-3.445-7.966-4.672-.867-.373-1.757-.678-2.729-.667-.33.004-.473.139-.592.418-.298.699-.32 1.438-.384 2.397Zm-8.959-36.35c-.209-.029-.253.031-.438.445-.693 1.548-.891 3.197-.977 4.863-.053 1.03.034 2.058.125 3.086.063.711.147 1.42.255 2.124a61.677 61.677 0 0 0 1.091 5.407c.32 1.266.673 2.524 1.037 3.778.301 1.04.638 2.069.962 3.101.023.071.05.16.15.16.083 0 .103-.077.138-.133.702-1.106 1.408-2.21 2.203-3.256.99-1.303 2.01-2.582 3.152-3.757.923-.95 1.86-1.889 2.883-2.735.95-.785 1.92-1.546 2.944-2.235.189-.127.177-.223.038-.37-.688-.725-1.352-1.473-2.06-2.176-1.195-1.186-2.409-2.351-3.7-3.437-.935-.786-1.883-1.555-2.887-2.252a25.526 25.526 0 0 0-3.289-1.951 10.6 10.6 0 0 0-1.627-.662ZM65.82 19.11c.163.282.464.42.683.644.973.995 1.99 1.945 2.897 3.008.72.845 1.406 1.713 2.067 2.603.695.935 1.351 1.9 1.976 2.883.092.145.114.371.306.385.052.004.14-.273.187-.43.38-1.283.797-2.555 1.166-3.843a71.14 71.14 0 0 0 1.132-4.412c.356-1.622.663-3.253.85-4.91a44.85 44.85 0 0 0 .237-3.306c.037-.982-.086-1.964-.193-2.941-.021-.064-.055-.126-.062-.19-.106-.921-.392-1.789-.776-2.625-.19-.413-.233-.417-.67-.245a21.633 21.633 0 0 0-4.293 2.284c-2.105 1.442-4.025 3.113-5.863 4.877a63.24 63.24 0 0 0-3.088 3.2c-.151.168-.188.26.03.419.815.593 1.635 1.18 2.42 1.816.327.264.6.602.994.783Zm-.475-11.2c.94-.898 1.852-1.827 2.841-2.675 1.797-1.539 3.713-2.9 5.883-3.871C75.48.732 76.944.272 78.501.152c.223-.017.357.024.49.236.57.913.932 1.904 1.209 2.936.57 2.126.655 4.296.57 6.474a50.095 50.095 0 0 1-.505 5.315c-.204 1.396-.46 2.783-.712 4.17-.096.528-.243 1.046-.313 1.58-.032.106-.07.212-.094.32-.389 1.806-.848 3.595-1.32 5.381-.554 2.102-1.14 4.197-1.823 6.26-.2.605-.067 1.07.168 1.59.674 1.492 1.53 2.897 2.105 4.436.408 1.094.81 2.188 1.146 3.306a42.91 42.91 0 0 1 1.264 5.564c.184 1.15.327 2.306.43 3.466.09 1.004.153 2.012.183 3.02.011.387.17.774.025 1.163-.523-.079-1.044-.178-1.569-.233-1.717-.18-3.431-.262-5.162-.088-1.999.2-3.925.651-5.773 1.414-2.403.992-4.525 2.426-6.412 4.206-.51.482-1.002.985-1.521 1.497-.2-.6-.39-1.171-.584-1.742-.553-1.64-1.385-3.154-2.138-4.704a5.86 5.86 0 0 0-.854-1.291c-1.205-1.382-2.56-2.593-4.127-3.555-2.415-1.484-5.073-2.127-7.885-2.134-1.458-.004-2.886.29-4.279.724-2.752.857-4.964 2.493-6.848 4.634-.688.781-1.145 1.69-1.674 2.562-.715 1.178-1.371 2.387-1.918 3.653-.264.612-.53 1.224-.81 1.87l-.342-.376c-3.241-3.572-7.116-6.022-11.975-6.766-1.808-.276-3.614-.292-5.429-.146-.898.072-1.785.227-2.672.378.014-1.01.1-2.014.18-3.02a44.63 44.63 0 0 1 .518-3.929c.188-1.102.43-2.196.692-3.285a49.7 49.7 0 0 1 1.528-5.154c.114-.32.288-.641-.016-.957-.01-.01.015-.053.033-.11.198.26.298.216.402-.064.608-1.643 1.316-3.245 2.051-4.835.073-.16.126-.312.057-.484a51.018 51.018 0 0 1-1.736-5.121 60.697 60.697 0 0 1-1.02-4c-.208-.973-.43-1.944-.645-2.916-.053-.806-.25-1.59-.369-2.387a84.839 84.839 0 0 1-.48-3.695 70.546 70.546 0 0 1-.288-3.821 42.935 42.935 0 0 1-.03-3.735c.057-1.532.16-3.066.55-4.558.213-.81.49-1.603.943-2.32.52-.825.942-.98 1.908-.83 1.694.262 3.186.995 4.603 1.902 1.89 1.211 3.57 2.68 5.164 4.25.639.63 1.28 1.258 1.92 1.887.04.054.074.112.119.161.837.91 1.687 1.809 2.51 2.73a244.36 244.36 0 0 1 3.466 3.954c.231.27.418.313.734.183 2.004-.824 4.082-1.405 6.21-1.804 1.84-.344 3.705-.464 5.573-.528 2.674-.093 5.338.03 7.98.47 2.368.394 4.685.987 6.93 1.84.507.191.503.2.83-.261.99-1.391 2.052-2.727 3.138-4.044.815-.988 1.682-1.93 2.537-2.88Z" fill="#F4A817"/><path d="M81.324 55.37c.144-.39-.014-.777-.025-1.164a51.033 51.033 0 0 0-.183-3.02 49.854 49.854 0 0 0-.43-3.467 42.907 42.907 0 0 0-1.264-5.563c-.335-1.118-.739-2.212-1.146-3.306-.575-1.539-1.43-2.944-2.105-4.435-.235-.521-.369-.986-.168-1.591.684-2.063 1.269-4.158 1.823-6.26.472-1.786.93-3.575 1.32-5.38.023-.11.062-.215.094-.322 1.069 1.526 1.993 3.136 2.844 4.792a43.885 43.885 0 0 1 2.74 6.638 45.118 45.118 0 0 1 1.475 6c.514 2.92.742 5.86.695 8.82a44.738 44.738 0 0 1-.601 6.705c-.943 5.604-2.835 10.87-5.763 15.751-2.976 4.963-6.78 9.19-11.462 12.623a40.847 40.847 0 0 1-8.335 4.72 39.302 39.302 0 0 1-5.327 1.814 39.35 39.35 0 0 1-6.013 1.074c-2.489.251-4.98.264-7.468.054a39.046 39.046 0 0 1-6.156-1.04 39.173 39.173 0 0 1-7.993-2.938c-6.092-3.03-11.114-7.328-15.154-12.777a43.667 43.667 0 0 1-5.233-9.25 44.949 44.949 0 0 1-1.971-5.784 45.616 45.616 0 0 1-1.188-6.238 47.096 47.096 0 0 1-.187-9.253c.192-2.51.595-4.99 1.213-7.43 1.24-4.893 3.217-9.47 5.995-13.696.012-.018.03-.033.044-.05.216.972.438 1.942.646 2.916a60.534 60.534 0 0 0 1.02 4 50.945 50.945 0 0 0 1.736 5.121c.069.172.016.325-.057.484-.735 1.59-1.444 3.192-2.051 4.836-.104.279-.204.324-.402.063-.018.057-.042.1-.033.11.304.316.13.637.015.957a50.13 50.13 0 0 0-1.527 5.154 49.75 49.75 0 0 0-.692 3.286 44.515 44.515 0 0 0-.518 3.928c-.08 1.006-.166 2.01-.18 3.02a11.208 11.208 0 0 0 .364 3.699c.489 1.795 1.278 3.457 2.259 5.032 1.973 3.17 4.516 5.843 7.33 8.273 3.91 3.376 8.228 6.126 12.928 8.282.925.424 1.842.858 2.8 1.211.706.26 1.413.504 2.123.749.442.152.89.313 1.34.45 1.664.511 3.369.855 5.1 1.022 1.969.19 3.934.076 5.89-.252a36.746 36.746 0 0 0 5.15-1.26 45.537 45.537 0 0 0 5.094-1.992 50.957 50.957 0 0 0 6.753-3.744 45.267 45.267 0 0 0 5.76-4.464c.766-.704 1.533-1.409 2.196-2.215.086-.017.124-.083.155-.156h.02l.009-.02c.034-.03.073-.054.103-.087 1.226-1.375 2.375-2.805 3.316-4.395.522-.883 1.08-1.746 1.515-2.675.794-1.696 1.356-3.464 1.634-5.32.102-.677.158-1.356.133-2.04ZM65.344 7.91c-.855.952-1.722 1.893-2.537 2.88-1.086 1.318-2.147 2.654-3.138 4.045-.327.46-.323.452-.83.26-2.245-.852-4.562-1.445-6.93-1.84-2.642-.44-5.307-.562-7.98-.47-1.868.065-3.733.185-5.573.53-2.128.398-4.206.98-6.21 1.803-.316.13-.503.087-.734-.183a244.36 244.36 0 0 0-3.465-3.954c-.824-.921-1.674-1.82-2.511-2.73-.045-.049-.08-.107-.12-.161a40.147 40.147 0 0 1 7.69-3.493A39.819 39.819 0 0 1 39.9 2.984c2.996-.43 5.999-.494 9.01-.253a38.19 38.19 0 0 1 6.124 1.014c3.56.88 6.921 2.248 10.115 4.036.068.038.13.086.196.13Z" fill="#F00500"/><path d="M50.645 83.277h-.31c.12.074.21.05.31 0Zm-1.011.148c.243.075.4.017.583-.074-.21-.07-.358.046-.583.074Zm-3.557-12.838v-.012h-2.876c-.576 0-.568 0-.547.576.006.151.079.22.184.29.284.184.605.286.913.418.214.093.33.073.416-.181.168-.497.186-.48.713-.446.172.012.265.09.343.218.179.296.354.594.534.889.279.458.728.485 1.079.069.151-.18.304-.358.456-.538.502-.594.502-.594 1.099-.087.082.07.14.177.282.143.488-.116.85-.58.865-1.058.009-.257-.096-.287-.314-.285-1.049.01-2.098.004-3.147.004Zm9.785-2.91c-.963 0-1.91.002-2.857-.001-.138 0-.21.084-.25.187-.097.249-.27.3-.524.293-.745-.02-1.49-.01-2.234-.015-.383-.002-.839.114-1.127-.053-.3-.174-.461-.614-.638-.96-.123-.243-.268-.365-.54-.32-.171.03-.232-.033-.23-.215.01-.843.007-1.686 0-2.53 0-.144.037-.215.184-.263.656-.216 1.248-.557 1.796-.97 1.073-.812 1.823-1.84 2.073-3.184.172-.924.083-1.86.115-2.79.038-1.12-1.101-2.267-2.226-2.268H43.14c-1.272 0-2.112.838-2.113 2.106 0 .596.03 1.193-.005 1.787-.073 1.22.43 2.192 1.25 3.037.992 1.022 2.213 1.697 3.508 2.256.125.054.246.075.244.262-.009.854-.005 1.708-.001 2.562 0 .133-.029.237-.184.199-.344-.084-.468.142-.6.384-.151.273-.326.533-.478.806-.07.123-.153.167-.295.166-1.332-.002-2.663.003-3.993-.07-.107-.005-.207 0-.21-.145-.003-.215-.145-.241-.318-.242-.925-.004-1.85-.012-2.776-.015-.067 0-.173-.05-.192.069-.017.108-.038.225.058.316.163.155.315.324.49.463.218.174.306.381.325.661.027.389.095.775.172 1.16.063.32.16.415.478.318.21-.064.448-.094.484.25.05.47.204.917.355 1.36.203.598.438 1.185.814 1.688.436-.444.477-.965.457-1.535-.036-1.054-.01-2.11-.01-3.17.152.017.322.023.486.057 1.406.288 2.834.391 4.263.446 2.305.087 4.594-.108 6.865-.503.257-.045.3.01.294.255-.022 1.079-.018 2.158-.035 3.237-.008.498.342.804.57 1.232l1.058-2.746c.198-.514.197-.52.743-.518.155.001.281 0 .326-.188.225-.944.456-1.887.69-2.856Zm18.29 2.502.054-.067-.036-.026-.028.083-.062.072c-.095-.004-.138.043-.136.135l-.084.021.023.035.062-.055a.215.215 0 0 0 .136-.135l.07-.063Zm.287-.116c-.663.806-1.43 1.511-2.196 2.215a45.265 45.265 0 0 1-5.76 4.464 50.957 50.957 0 0 1-6.753 3.744 45.57 45.57 0 0 1-5.093 1.993c-1.686.54-3.402.966-5.152 1.26-1.955.327-3.92.442-5.89.251a25.83 25.83 0 0 1-5.1-1.021c-.449-.138-.897-.299-1.34-.451-.709-.245-1.416-.488-2.122-.749-.958-.353-1.875-.787-2.8-1.211-4.7-2.156-9.018-4.906-12.928-8.282-2.814-2.43-5.357-5.103-7.33-8.273-.98-1.575-1.77-3.237-2.259-5.032a11.208 11.208 0 0 1-.364-3.7c.887-.15 1.774-.305 2.672-.377 1.815-.146 3.62-.13 5.429.146 4.859.744 8.733 3.194 11.975 6.766l.342.376c.28-.646.546-1.258.81-1.87.547-1.266 1.203-2.475 1.918-3.653.529-.872.985-1.78 1.673-2.562 1.885-2.141 4.097-3.777 6.849-4.634 1.393-.434 2.821-.728 4.279-.724 2.811.007 5.47.65 7.885 2.134 1.566.962 2.922 2.173 4.127 3.555.342.392.626.824.853 1.29.754 1.55 1.586 3.065 2.14 4.705.192.57.382 1.143.583 1.742.519-.512 1.01-1.015 1.521-1.497 1.887-1.78 4.009-3.214 6.412-4.206 1.848-.763 3.774-1.213 5.772-1.414 1.732-.174 3.445-.091 5.163.088.525.055 1.046.154 1.569.233.025.686-.031 1.364-.133 2.042-.278 1.855-.84 3.623-1.634 5.319-.436.93-.993 1.792-1.515 2.675-.941 1.59-2.09 3.02-3.316 4.395-.03.033-.069.058-.103.087-.056-.14.125-.217.108-.376-.14.128-.298.204-.313.395l.002-.003c-.038.016-.102.026-.108.05-.02.083.062.067.107.086l.02.024Z" fill="#FFFEFE"/><path d="M14.213 5.645c.548.162 1.097.402 1.627.663a25.49 25.49 0 0 1 3.289 1.95c1.004.698 1.952 1.467 2.887 2.253 1.291 1.086 2.505 2.251 3.7 3.437.708.703 1.372 1.45 2.06 2.175.14.147.15.244-.038.37-1.023.69-1.994 1.45-2.944 2.236-1.023.846-1.96 1.784-2.883 2.735-1.143 1.175-2.162 2.453-3.152 3.757-.795 1.047-1.5 2.15-2.203 3.256-.035.056-.055.132-.138.132-.1 0-.127-.088-.15-.159-.324-1.032-.66-2.062-.962-3.101a111.643 111.643 0 0 1-1.037-3.779 55.799 55.799 0 0 1-.68-3.067c-.15-.778-.29-1.557-.41-2.339a33.367 33.367 0 0 1-.256-2.125c-.09-1.027-.178-2.055-.125-3.085.086-1.666.284-3.315.977-4.863.185-.414.23-.474.438-.446Z" fill="#F28F1F"/><path d="M77.127 8.79c.107.978.23 1.96.192 2.942a44.85 44.85 0 0 1-.237 3.307c-.187 1.656-.494 3.287-.849 4.91a71.63 71.63 0 0 1-1.132 4.41c-.37 1.289-.785 2.561-1.166 3.845-.047.156-.135.433-.187.43-.193-.015-.214-.241-.306-.386a47.905 47.905 0 0 0-4.043-5.486c-.906-1.063-1.924-2.013-2.898-3.008-.219-.225-.52-.362-.682-.644.06-.08.137-.152.18-.24.426-.899.909-1.766 1.423-2.617.778-1.286 1.64-2.515 2.65-3.629 1.06-1.169 2.257-2.18 3.682-2.894 1.062-.533 2.172-.899 3.373-.94Z" fill="#F28B20"/><path d="M23.171 41.996c.063-.96.085-1.698.383-2.396.12-.28.263-.415.593-.42.972-.01 1.862.295 2.729.668 2.849 1.227 5.426 2.923 7.966 4.672.984.677 1.833 1.51 2.383 2.6.142.282.236.578.287.889.058.354-.055.527-.412.647-.422.142-.859.19-1.298.178-1.23-.034-2.438-.225-3.639-.488a25.622 25.622 0 0 1-3.518-1.028c-1.764-.662-3.46-1.444-4.842-2.771-.334-.32-.58-.656-.568-1.158.013-.537-.047-1.076-.064-1.393Z" fill="#1F1712"/><path d="M68.072 42.112c-.024.448-.07.897-.063 1.345.005.346-.154.588-.37.825-.82.901-1.832 1.536-2.904 2.09-1.613.832-3.32 1.414-5.078 1.84-1.366.333-2.75.584-4.167.586-.377 0-.739-.071-1.099-.158-.381-.091-.499-.299-.444-.651.178-1.141.88-1.966 1.666-2.731.995-.969 2.19-1.674 3.34-2.433 1.421-.938 2.87-1.835 4.397-2.596 1.076-.535 2.167-1.048 3.386-1.155.89-.078.813-.066 1.11.835.235.712.224 1.46.226 2.203Z" fill="#1F1713"/><path d="M77.127 8.79c-1.2.041-2.31.407-3.373.94-1.425.714-2.622 1.725-3.682 2.894-1.01 1.114-1.872 2.343-2.65 3.629a29.624 29.624 0 0 0-1.424 2.617c-.042.088-.119.16-.18.24-.393-.18-.667-.52-.993-.783-.785-.636-1.605-1.223-2.42-1.816-.218-.16-.181-.251-.03-.418a63.456 63.456 0 0 1 3.088-3.202c1.838-1.763 3.758-3.434 5.863-4.876a21.615 21.615 0 0 1 4.292-2.284c.438-.173.481-.168.67.245.385.836.671 1.704.776 2.624.008.065.041.127.063.19Z" fill="#F2991D"/><path d="M62.002 36.995c-1.477-.027-2.713-.072-3.916-.425-1.12-.33-1.6-1.04-1.507-2.218.1-1.283.787-2.245 1.684-3.085.507-.474 1.047-.921 1.717-1.162 1.151-.414 2.248-.224 3.274.374 1.284.749 2.171 1.81 2.383 3.323.12.864-.076 1.669-.553 2.41-.34.529-.868.656-1.426.692-.63.04-1.26.12-1.656.09Zm-33.312-.011c-.818.009-1.546-.055-2.276-.114-.647-.051-.974-.46-1.288-.95-.467-.726-.42-1.495-.326-2.3.217-1.832 2.013-3.389 3.777-3.686 1.022-.172 1.96.086 2.787.728.952.738 1.83 1.544 2.179 2.739.224.768.16 1.56-.125 2.313-.156.41-.52.64-.912.78a7.51 7.51 0 0 1-1.977.407c-.639.048-1.28.121-1.84.083Z" fill="#FFFEFE"/><path d="M74.418 69.905c.015-.19.173-.266.312-.394.018.16-.163.236-.108.375l-.007.02-.022.001c-.058 0-.117 0-.175-.002Z" fill="#F6D9A7"/><path d="M74.418 69.906c.058 0 .117 0 .175.002-.03.072-.068.138-.155.155l-.02-.024.002-.136-.002.003Z" fill="#FFFEFE"/><path d="M55.861 67.677c-.235.97-.465 1.912-.69 2.856-.045.189-.171.189-.327.188-.545-.002-.544.004-.742.518-.344.895-.69 1.79-1.059 2.745-.228-.427-.578-.733-.57-1.231.018-1.08.013-2.158.036-3.237.005-.245-.037-.3-.294-.255-2.271.395-4.56.59-6.866.502-1.428-.054-2.856-.158-4.262-.445-.165-.034-.334-.04-.487-.058 0 1.061-.026 2.117.01 3.17.02.57-.02 1.092-.456 1.536-.376-.503-.611-1.09-.814-1.688-.151-.443-.306-.89-.355-1.36-.037-.344-.274-.314-.484-.25-.319.097-.415.001-.479-.317a9.19 9.19 0 0 1-.17-1.161c-.02-.28-.108-.487-.326-.66-.176-.14-.328-.309-.49-.464-.097-.091-.076-.208-.058-.316.018-.118.125-.07.192-.07.925.003 1.85.012 2.776.016.172 0 .314.027.318.242.002.145.103.14.21.146 1.33.072 2.661.067 3.993.07.141 0 .226-.044.295-.167.152-.273.326-.533.477-.806.133-.242.257-.468.6-.384.156.038.185-.066.184-.199-.003-.854-.007-1.708.002-2.562.002-.187-.12-.208-.245-.262-1.294-.559-2.515-1.234-3.507-2.256-.82-.845-1.324-1.817-1.25-3.037.035-.594.004-1.191.005-1.787 0-1.268.84-2.106 2.112-2.106 2.088-.001 4.176-.002 6.263 0 1.125 0 2.265 1.148 2.226 2.268-.03.93.058 1.866-.114 2.79-.25 1.345-1 2.372-2.074 3.183-.547.414-1.14.755-1.796.97-.146.049-.184.12-.183.265.007.843.009 1.686 0 2.528-.003.183.059.246.23.217.272-.046.416.076.54.319.176.346.338.786.637.96.289.167.745.05 1.127.053.745.005 1.49-.006 2.234.015.255.007.427-.044.524-.293.04-.103.113-.188.251-.187.947.002 1.894.001 2.856.001Z" fill="#1D1919"/><path d="M46.077 70.587c1.049 0 2.098.005 3.147-.004.218-.002.323.028.315.285a1.157 1.157 0 0 1-.866 1.058c-.142.033-.2-.073-.282-.143-.597-.507-.597-.507-1.1.087l-.455.538c-.35.416-.8.389-1.079-.07-.18-.294-.355-.592-.534-.888-.078-.128-.17-.207-.343-.218-.527-.034-.545-.05-.713.446-.086.254-.202.274-.416.181-.308-.132-.63-.234-.913-.419-.105-.07-.178-.138-.184-.289-.02-.577-.029-.576.547-.576h2.876v.012Z" fill="#171413"/><path d="M49.634 83.425c.225-.028.372-.144.583-.074-.182.09-.34.149-.583.074Zm1.01-.148c-.1.049-.19.074-.309 0h.31ZM74.42 69.903l-.001.136c-.045-.02-.127-.004-.107-.086.006-.024.07-.034.108-.05Zm-.476.473c-.002-.092.041-.14.136-.135l.001.001a.215.215 0 0 1-.136.135h-.001Z" fill="#F6D9A7"/><path d="m73.945 70.377-.061.055-.023-.035.083-.02h.001Zm-.992.964c0 .009.002.022-.003.025-.007.006-.022.01-.03.007-.03-.014-.03-.03.005-.04.008-.003.019.005.028.008Z" fill="#F7DDB0"/><path d="m74.142 70.169.028-.083.037.026-.055.066-.01-.01Z" fill="#F6D9A7"/><path d="M74.08 70.241c.02-.025.042-.05.064-.074l.01.01-.073.065h-.001Z" fill="#F6D9A7"/><path d="m73.736 70.573.032-.043c.043.038 0 .042-.021.054l-.011-.01Z" fill="#F7DDB0"/><path d="m73.747 70.583-.04.028.03-.038.01.01Zm-.174.148.008.022-.02-.002zm-.183.174c.015-.025.026-.06.059-.018.001.002-.025.025-.038.038l-.02-.02Z" fill="#F7DDB0"/><path d="m73.412 70.924-.045.025a2.93 2.93 0 0 0 .024-.045l.02.02Zm-.177.108-.007-.02.018.003zm-.205.203-.006-.02.018.002z" fill="#F7DDB0"/></g></svg>