<svg viewBox="0 0 90 90" xmlns="http://www.w3.org/2000/svg"><defs><linearGradient x1="8.439%" y1="91.391%" x2="90.496%" y2="9.663%" id="a"><stop stop-color="#9945FF" offset="8%"/><stop stop-color="#8752F3" offset="30%"/><stop stop-color="#5497D5" offset="50%"/><stop stop-color="#43B4CA" offset="60%"/><stop stop-color="#28E0B9" offset="72%"/><stop stop-color="#19FB9B" offset="97%"/></linearGradient></defs><path d="M89.529 63.075 74.67 78.908A3.436 3.436 0 0 1 72.156 80H1.726a1.733 1.733 0 0 1-1.582-1.03 1.707 1.707 0 0 1 .316-1.853L15.3 61.283a3.438 3.438 0 0 1 2.516-1.091h70.43a1.727 1.727 0 0 1 1.607 1.017 1.695 1.695 0 0 1-.324 1.866ZM74.67 31.184a3.472 3.472 0 0 0-2.515-1.092H1.726a1.733 1.733 0 0 0-1.582 1.03 1.707 1.707 0 0 0 .316 1.853L15.3 48.817a3.472 3.472 0 0 0 2.516 1.091h70.43c.335-.001.662-.1.942-.284a1.717 1.717 0 0 0 .75-1.721 1.708 1.708 0 0 0-.434-.878L74.67 31.184ZM1.726 19.809h70.43a3.454 3.454 0 0 0 2.515-1.092L89.53 2.884a1.706 1.706 0 0 0 .324-1.867A1.726 1.726 0 0 0 88.246 0h-70.43a3.456 3.456 0 0 0-2.515 1.092L.46 16.925a1.713 1.713 0 0 0 1.265 2.884Z" transform="translate(0 5)" fill="url(#a)"/></svg>