<svg viewBox="0 0 90 90" xmlns="http://www.w3.org/2000/svg"><g fill="none"><path d="M88.653 55.886c-6.01 24.107-30.43 38.778-54.543 32.767-24.103-6.01-38.776-30.428-32.762-54.534C7.356 10.009 31.775-4.664 55.881 1.347c24.111 6.01 38.783 30.43 32.772 54.54Z" fill="#000"/><path d="M75 32.754v5.192l-2.183 1.117a4.646 4.646 0 0 0-2.506 4.484c.049.648.074 1.303.074 1.958-.003 9.587-5.358 18.363-13.86 22.715a25.287 25.287 0 0 1-26.439-2.085l4.483-2.296.254-.135a20.7 20.7 0 0 0 20.663-.192c6.366-3.744 10.28-10.596 10.284-18.007 0-.917-.06-1.834-.178-2.744L30.67 60.64l-7.224 3.698L15 68.659v-5.205l8.504-4.353 4.133-2.12L75 32.755Zm-41.531-9.97a25.287 25.287 0 0 1 26.442 2.08l-.617.316-4.135 2.117a20.7 20.7 0 0 0-20.641.214c-6.356 3.742-10.266 10.585-10.275 17.987 0 .911.06 1.822.177 2.726l34.887-17.852 7.225-3.698L75 22.334v5.207l-8.542 4.374-4.133 2.114-36.778 18.826-2.048 1.048-2.08 1.067L15 58.257v-5.21l2.18-1.117a4.643 4.643 0 0 0 2.509-4.484 25.546 25.546 0 0 1-.074-1.94c-.001-9.589 5.351-18.367 13.854-22.723Z" fill="#FFF"/></g></svg>