<svg viewBox="0 0 90 90" xmlns="http://www.w3.org/2000/svg" xmlns:xlink="http://www.w3.org/1999/xlink"><defs><path id="a" d="M0 0h28.125v55.998H0z"/></defs><g fill="none" fill-rule="evenodd"><path d="M39.764 71.285c2.388 9.07 10.96 15.99 15.286 15.707.15-.01 16.418-3.123 25.322-18.392 6.931-11.88 4.57-23.351-4.855-23.6-3.39.252-40.306 9.007-35.753 26.288M47.951 3a42.355 42.355 0 0 0-17.235 3.652c-.922.385-1.82.824-2.69 1.315-.597.318-1.194.632-1.77.974l.137.044c-1.747 1.206-3.25 2.61-4.481 4.236C9.72 29.289 50.579 40.968 72.422 41.009c10.053 7.198 12.874-20.27 3.054-27.894A42.247 42.247 0 0 0 47.95 3Z" fill="#0E3CA5" fill-rule="nonzero"/><path d="M32.596 12.421c-5.524 8.08-23.929 13.773-26.955 12.885l-.014-.034.378-.727a43.497 43.497 0 0 1 13.12-14.9 44.33 44.33 0 0 1 3.517-2.269c2.57-1.452 5.212-1.54 6.08-1.575 8.194.15 3.915 6.555 3.87 6.62" fill="#5493F7" fill-rule="nonzero"/><g transform="translate(0 31)"><mask id="b" fill="#fff"><use xlink:href="#a"/></mask><path d="M27.96 41.962c.412 2.654-.01 13.144-.565 14.029-.474.027-1.469.089-4.34-1.496A45.675 45.675 0 0 1 8.81 42.006a44.636 44.636 0 0 1-6.485-12.311A43.958 43.958 0 0 1 0 15.519 43.924 43.924 0 0 1 2.807 0h.007c3.294 4.3 7.102 8.191 10.338 12.537 3.084 4.133 7.325 10.873 8.187 12.314 5.359 8.94 6.213 14.456 6.622 17.11" fill="#5493F7" fill-rule="nonzero" mask="url(#b)"/></g><path d="M90 47.015a44.127 44.127 0 0 1-3.085 16.246c-5.215 5.602-40.392-8.185-40.738-8.335-4.81-2.104-19.455-8.512-20.776-18.576-1.9-14.477 27.511-24.567 40.437-24.95 1.547.017 6.265.072 9.013 2.306A44.108 44.108 0 0 1 90 47.01M59.24 82.824c2.103-7.412 20.494-15.01 24.553-15.42.5-.05.714.301.494.704-4.234 7.666-10.503 13.978-18.09 18.07-3.835 1.852-8.056.503-6.958-3.354Z" fill="#5493F7" fill-rule="nonzero"/></g></svg>