<svg viewBox="0 0 90 90" xmlns="http://www.w3.org/2000/svg"><g fill="none"><path d="M88.653 55.886c-6.01 24.107-30.43 38.778-54.543 32.767-24.103-6.01-38.776-30.428-32.762-54.534C7.356 10.009 31.775-4.664 55.881 1.347c24.111 6.01 38.783 30.43 32.772 54.54Z" fill="red"/><path d="m17 20 23.4 58L73 38.87 61.458 28.06 17 20Zm8.295 4.614 32.046 5.81-12.44 10.21-19.606-16.02Zm-2.222 2.158 20.434 16.697-3.195 26.036-17.239-42.733Zm37.67 4.839 6.8 6.37-18.6 3.318 11.8-9.688ZM46.464 44.85l20.597-3.674-23.625 28.357 3.028-24.683Z" fill="#FFF"/></g></svg>