<svg viewBox="0 0 90 90" xmlns="http://www.w3.org/2000/svg"><defs><linearGradient x1="50%" y1="0%" x2="50%" y2="100%" id="a"><stop stop-color="#FEF4FB" offset="0%"/><stop stop-color="#FDE4F1" offset="100%"/></linearGradient></defs><g fill="none"><path d="M88.653 55.886c-6.01 24.107-30.43 38.778-54.543 32.767-24.103-6.01-38.776-30.428-32.762-54.534C7.356 10.009 31.775-4.664 55.881 1.347c24.111 6.01 38.783 30.43 32.772 54.54Z" stroke="#FAC1DB" fill="url(#a)"/><path d="M44.9 58.846c1.87.482 3.545 1.564 4.413 2.848.85 1.26 1.216 2.354 1.598 4.796.148.96.311 1.927.358 2.144.284 1.265.841 2.276 1.527 2.781 1.09.806 2.976.857 4.827.13.192-.09.395-.153.604-.189.066.067-.865.695-1.52 1.027a5.14 5.14 0 0 1-2.524.616c-1.695 0-3.101-.869-4.278-2.638a21.051 21.051 0 0 1-1.153-2.323c-1.239-2.848-1.85-3.713-3.288-4.665-1.254-.83-2.87-.976-4.086-.375-1.598.79-2.042 2.844-.896 4.147.535.56 1.235.93 1.994 1.051a2.104 2.104 0 0 0 1.69-.516 2.166 2.166 0 0 0 .722-1.633c0-.857-.328-1.343-1.15-1.722-1.125-.51-2.33.087-2.325 1.15 0 .454.198.738.65.947.289.13.296.139.059.091-1.029-.217-1.27-1.47-.444-2.299.997-.995 3.054-.557 3.759.806.296.573.331 1.71.074 2.398-.584 1.54-2.267 2.35-3.981 1.908-1.17-.3-1.64-.624-3.047-2.082-2.443-2.536-3.39-3.03-6.91-3.583l-.679-.106.768-.652c2.583-2.196 5.789-3.753 8.714-4.234a13.49 13.49 0 0 1 4.523.177Zm12.435-12.822c.05 0 .272.119.483.265.428.288 1.277.774 3.553 2.022 2.836 1.56 4.456 2.765 5.555 4.148.962 1.205 1.558 2.583 1.846 4.258.164.948.067 3.24-.175 4.195-.763 3.018-2.532 5.388-5.064 6.77-.37.202-.702.368-.74.368-.036 0 .1-.344.3-.766.853-1.794.95-3.536.307-5.475-.397-1.19-1.2-2.639-2.82-5.092-1.697-2.56-2.24-3.433-2.669-4.313l-.094-.197-.046-.1c-.923-1.998-1.138-3.93-.631-5.731.054-.198.14-.352.195-.352ZM19 16c.1 0 15.964 13.841 17.604 15.769l.456.529-.039.83a3.388 3.388 0 0 1-1.207 2.575c-.935.869-2.07 1.331-3.857 1.58-1.099.15-1.496.316-1.94.806-.425.474-.585 1.062-.702 2.551-.183 2.303-.451 3.279-1.534 5.57-1.045 2.208-1.259 3.042-1.072 4.227.218 1.441 1.029 2.488 2.922 3.792 1.441.995 2.096 1.639 2.454 2.41.222.473.25.647.246 1.469-.008 1.26-.207 1.765-1.064 2.686-1.383 1.489-3.841 2.698-6.864 3.385-1.27.288-1.325.288-1.325-.004 0-.371-.467-1.32-1.285-2.595-.947-1.478-1.32-2.212-1.672-3.334-.405-1.276-.518-2.137-.46-3.476.055-1.26.192-1.821.69-2.82.398-.798.655-1.158 2.22-3.129 2.681-3.37 3.647-5.337 3.99-8.121.308-2.485.733-3.686 1.683-4.752.569-.644.697-.889.697-1.355 0-.23.554-.818-.136-2.425-2.956-5.332-3.871-6.98-4.113-7.449l-.048-.095c-.05-.104-.027-.082.004-.052a526.005 526.005 0 0 1 4.395 6.817c1.513 2.708 1.829 2.965 2.113 3.21l.053.047.054.05s.199.22.772.22a5.323 5.323 0 0 0 2.006-.564c.88-.506 1.075-1.153.561-1.872-.623-.87-6.245-4.985-14.403-14.963C19.52 16.683 18.981 16 19 16Zm3.054 38.66c0 .157.085.272.28.37.328.17.35.36.094.751-.261.391-.238.735.058.972.48.375 1.157.17 1.516-.466a1.474 1.474 0 0 0-.448-1.932c-.585-.395-1.5-.205-1.5.304ZM54.07 44.39l.331.374c.456.514.818 1.173 1.122 2.054.234.672.257.87.257 1.96 0 1.07-.031 1.295-.25 1.896-.299.89-.8 1.696-1.464 2.354-1.27 1.303-2.902 2.022-5.26 2.322-.408.052-1.6.139-2.648.194-2.645.138-4.387.427-5.95.98a1.23 1.23 0 0 1-.447.106c-.062-.063 1.005-.703 1.882-1.13 1.238-.604 2.473-.932 5.24-1.394 1.363-.229 2.777-.51 3.135-.62 3.382-1.043 5.123-3.74 4.566-7.082a12.35 12.35 0 0 0-.335-1.482l-.179-.533Zm-3.958-9.659c.023 0 .292.198.596.447 1.41 1.137 2.988 1.623 7.359 2.267 2.571.38 4.013.683 5.349 1.13 4.246 1.418 6.868 4.293 7.495 8.216.18 1.137.078 3.27-.222 4.396-.234.889-.943 2.489-1.13 2.552-.054.02-.105-.182-.116-.458-.07-1.47-.81-2.904-2.05-3.978-1.41-1.22-3.303-2.192-7.931-4.069v-.004c-6.95-2.816-9.397-5.265-9.397-9.393 0-.608.02-1.106.047-1.106Zm-11.925 2.99a3.711 3.711 0 0 1 2.154.206c1.005.517 1.734 1.686 1.578 2.532-.195 1.035-1.854 1.86-3.763 1.872-.978.004-1.336-.126-1.71-.628-.23-.308-.32-1.315-.168-1.888.257-.94 1.071-1.837 1.909-2.094Zm-.499 1.379c0 .454.752.948 1.442.948.46 0 1.09-.277 1.293-.569.292-.423.164-.877-.339-1.185-.95-.588-2.396-.103-2.396.806Zm.367-18.834c2.508.6 4.791 2.141 7.23 4.878l.647.727.927-.15c3.903-.632 7.87-.13 11.192 1.414.916.427 2.357 1.272 2.533 1.49.062.07.167.513.233.99.25 1.652.129 2.912-.374 3.856-.272.514-.288.676-.105 1.118.179.372.55.608.959.608.825 0 1.714-1.343 2.123-3.215l.163-.747.324.372c1.78 2.03 3.175 4.795 3.412 6.762l.063.514-.296-.466a5.74 5.74 0 0 0-1.695-1.79c-1.192-.794-2.454-1.066-5.79-1.244-3.014-.158-4.72-.419-6.411-.976-2.88-.948-4.329-2.204-7.75-6.723-1.518-2.01-2.453-3.12-3.388-4.013-2.124-2.034-4.208-3.1-6.876-3.516v-.003c-.733-.115-.764-.127-.417-.178.662-.103 2.22.035 3.296.292Zm24.134.743c.02 0-.043.237-.14.525-.265.79-.312 1.864-.125 3.117.234 1.588.362 1.817 2.026 3.531.783.806 1.69 1.817 2.021 2.255l.6.79-.6-.564c-.732-.692-2.415-2.043-2.789-2.236-.25-.127-.288-.127-.44.028-.144.142-.172.355-.195 1.366-.027 1.576-.241 2.588-.756 3.595-.276.553-.32.434-.07-.186.187-.458.207-.663.207-2.188 0-3.061-.367-3.8-2.482-5.056a23.145 23.145 0 0 0-1.963-1.027 7.406 7.406 0 0 1-.959-.474c.059-.06 2.123.549 2.953.869 1.24.482 1.442.54 1.594.486.097-.04.148-.336.194-1.205h.004c.074-1.343.254-2.232.62-3.042.08-.204.18-.4.3-.584Zm-27.738.545.339.059c.639.119 1.734.53 2.248.845 1.406.861 2.018 1.995 2.637 4.91.183.853.42 1.817.53 2.15.175.524.845 1.753 1.387 2.55.39.578.132.85-.732.771-1.321-.118-3.11-1.363-4.262-2.962-1.485-2.062-2.408-5.226-2.205-7.592l.058-.731Z" fill="#FF007A"/></g></svg>