<svg viewBox="0 0 90 90" xmlns="http://www.w3.org/2000/svg"><g fill="none"><path d="M88.653 55.886c-6.01 24.107-30.43 38.778-54.543 32.767-24.103-6.01-38.776-30.428-32.762-54.534C7.356 10.009 31.775-4.664 55.881 1.347c24.111 6.01 38.783 30.43 32.772 54.54Z" fill="#23292F"/><path d="M66.243 22h8.676L56.838 38.936a17.65 17.65 0 0 1-23.676 0L15.082 22h8.675l13.702 12.803a11.095 11.095 0 0 0 15 0L66.243 22ZM23.676 69H15l18.162-17.017a17.478 17.478 0 0 1 23.676 0L75 69h-8.676L52.541 56.034a11.095 11.095 0 0 0-15 0L23.676 69Z" fill="#FFF"/></g></svg>